<?xml version="1.0" encoding="UTF-8"?>
<svg id="Layer_2" data-name="Layer 2" xmlns="http://www.w3.org/2000/svg" viewBox="0 0 530.71 530.71">
  <defs>
    <style>
      .cls-1 {
        isolation: isolate;
      }

      .cls-2 {
        fill: #5d7280;
      }

      .cls-2, .cls-3, .cls-4, .cls-5, .cls-6, .cls-7, .cls-8 {
        stroke-width: 0px;
      }

      .cls-3 {
        fill: #2c353b;
      }

      .cls-4 {
        fill: #888abf;
      }

      .cls-5 {
        fill: #3b4951;
      }

      .cls-6 {
        fill: #d7daff;
      }

      .cls-7 {
        fill: #aeb2f4;
      }

      .cls-8 {
        fill: #fff;
      }
    </style>
  </defs>
  <g id="_ëÎÓÈ_1" data-name="ëÎÓÈ 1">
    <g>
      <path class="cls-8" d="M479.83.5c27.71,0,50.38,22.67,50.38,50.38v428.95c0,27.71-22.67,50.38-50.38,50.38H50.88c-27.71,0-50.38-22.67-50.38-50.38V50.88C.5,23.17,23.17.5,50.88.5h428.95M479.83,0H50.88C22.83,0,0,22.83,0,50.88v428.95c0,28.06,22.83,50.88,50.88,50.88h428.95c28.06,0,50.88-22.83,50.88-50.88V50.88c0-28.06-22.83-50.88-50.88-50.88h0Z"/>
      <g>
        <g>
          <g>
            <g class="cls-1">
              <path class="cls-2" d="M165.81,268.43l5.92,3.44c-1.91-1.11-4.56-.96-7.48.73l-5.92-3.44c2.92-1.69,5.57-1.84,7.48-.73Z"/>
              <path class="cls-2" d="M156.81,297.54l-5.92-3.44c-1.89-1.1-3.06-3.44-3.07-6.76-.02-6.67,4.68-14.81,10.51-18.18l5.92,3.44c-5.82,3.36-10.52,11.5-10.51,18.18,0,3.32,1.18,5.66,3.07,6.76Z"/>
              <path class="cls-3" d="M164.24,272.6c5.81-3.35,10.54-.66,10.56,6.02.02,6.69-4.68,14.83-10.49,18.19-5.82,3.36-10.56.67-10.57-6.03-.02-6.67,4.68-14.81,10.51-18.18Z"/>
            </g>
            <g class="cls-1">
              <path class="cls-2" d="M209.69,243.54l5.92,3.44c-1.91-1.11-4.56-.96-7.49.73l-5.92-3.44c2.92-1.69,5.57-1.84,7.49-.73Z"/>
              <path class="cls-2" d="M200.69,272.64l-5.92-3.44c-1.89-1.1-3.06-3.44-3.07-6.76-.02-6.67,4.68-14.81,10.51-18.18l5.92,3.44c-5.82,3.36-10.52,11.5-10.51,18.18,0,3.32,1.18,5.66,3.07,6.76Z"/>
              <path class="cls-3" d="M208.12,247.7c5.81-3.35,10.54-.66,10.56,6.02.02,6.69-4.68,14.83-10.49,18.19-5.82,3.36-10.56.67-10.57-6.03-.02-6.67,4.68-14.81,10.51-18.18Z"/>
            </g>
            <g class="cls-1">
              <polygon class="cls-2" points="191.94 246.4 183.25 241.35 206.98 227.64 215.68 232.7 191.94 246.4"/>
              <polygon class="cls-5" points="156.98 279.52 148.28 274.47 148.25 261.55 156.94 266.61 156.98 279.52"/>
              <polygon class="cls-2" points="156.94 266.61 148.25 261.55 172.01 247.84 180.71 252.89 156.94 266.61"/>
              <polygon class="cls-3" points="191.64 140.32 191.94 246.4 215.68 232.7 215.72 245.61 156.98 279.52 156.94 266.61 180.71 252.89 180.4 146.81 191.64 140.32"/>
              <polygon class="cls-5" points="180.71 252.89 172.01 247.84 171.71 141.75 180.4 146.81 180.71 252.89"/>
              <polygon class="cls-2" points="180.4 146.81 171.71 141.75 182.95 135.27 191.64 140.32 180.4 146.81"/>
            </g>
          </g>
          <g>
            <polygon class="cls-5" points="353.53 289.28 181.37 189.89 181.37 177.59 353.53 276.98 353.53 289.28"/>
            <polygon class="cls-3" points="363.4 283.58 353.53 289.28 353.53 276.98 363.4 271.28 363.4 283.58"/>
            <polygon class="cls-2" points="353.53 276.95 181.38 177.56 191.25 171.86 363.4 271.25 353.53 276.95"/>
          </g>
          <g>
            <g class="cls-1">
              <path class="cls-2" d="M346.55,373.02l5.92,3.44c-1.91-1.11-4.56-.96-7.48.73l-5.92-3.44c2.92-1.69,5.57-1.84,7.48-.73Z"/>
              <path class="cls-2" d="M337.55,402.12l-5.92-3.44c-1.89-1.1-3.06-3.44-3.07-6.76-.02-6.67,4.68-14.81,10.51-18.18l5.92,3.44c-5.82,3.36-10.52,11.5-10.51,18.18,0,3.32,1.18,5.66,3.07,6.76Z"/>
              <path class="cls-3" d="M344.98,377.18c5.81-3.35,10.54-.66,10.56,6.02.02,6.69-4.68,14.83-10.49,18.19-5.82,3.36-10.56.67-10.57-6.03-.02-6.67,4.68-14.81,10.51-18.18Z"/>
            </g>
            <g class="cls-1">
              <path class="cls-2" d="M390.43,348.12l5.92,3.44c-1.91-1.11-4.56-.96-7.48.73l-5.92-3.44c2.92-1.69,5.57-1.84,7.48-.73Z"/>
              <path class="cls-2" d="M381.43,377.22l-5.92-3.44c-1.89-1.1-3.06-3.44-3.07-6.76-.02-6.67,4.68-14.81,10.51-18.18l5.92,3.44c-5.82,3.36-10.52,11.5-10.51,18.18,0,3.32,1.18,5.66,3.07,6.76Z"/>
              <path class="cls-3" d="M388.87,352.29c5.81-3.35,10.54-.66,10.56,6.02.02,6.69-4.68,14.83-10.49,18.19-5.82,3.36-10.56.67-10.57-6.03-.02-6.67,4.68-14.81,10.51-18.18Z"/>
            </g>
            <g class="cls-1">
              <polygon class="cls-2" points="372.68 350.98 363.99 345.93 387.72 332.23 396.42 337.28 372.68 350.98"/>
              <polygon class="cls-5" points="337.72 384.1 329.03 379.05 328.99 366.14 337.68 371.19 337.72 384.1"/>
              <polygon class="cls-2" points="337.68 371.19 328.99 366.14 352.75 352.42 361.45 357.47 337.68 371.19"/>
              <polygon class="cls-3" points="372.38 244.9 372.68 350.98 396.42 337.28 396.46 350.19 337.72 384.1 337.68 371.19 361.45 357.47 361.15 251.39 372.38 244.9"/>
              <polygon class="cls-5" points="361.45 357.47 352.75 352.42 352.45 246.34 361.15 251.39 361.45 357.47"/>
              <polygon class="cls-2" points="361.15 251.39 352.45 246.34 363.69 239.85 372.38 244.9 361.15 251.39"/>
            </g>
          </g>
        </g>
        <g>
          <g>
            <polygon class="cls-5" points="335.63 268.49 152.66 162.85 152.66 110.52 335.63 216.16 335.63 268.49"/>
            <polygon class="cls-7" points="308.32 207.14 179.97 133.04 179.97 149.28 308.32 223.38 308.32 207.14"/>
            <polygon class="cls-3" points="308.32 237.53 179.97 163.43 179.97 157.07 308.32 231.17 308.32 237.53"/>
          </g>
          <g>
            <polygon class="cls-3" points="394.58 234.46 335.63 268.49 335.63 216.16 394.58 182.12 394.58 234.46"/>
            <path class="cls-4" d="M379.33,236.5l-28.46,16.43c-4.22,2.43-7.63-.15-7.63-5.77v-18.46c0-5.62,3.42-12.15,7.63-14.59l28.46-16.43c4.22-2.43,7.63.15,7.63,5.77v18.46c0,5.62-3.42,12.15-7.63,14.59Z"/>
            <g>
              <g>
                <path class="cls-7" d="M353.02,219.46c0,1.27-.89,2.82-1.99,3.45-1.1.64-1.99.12-1.99-1.15s.89-2.82,1.99-3.45c1.1-.64,1.99-.12,1.99,1.15Z"/>
                <path class="cls-7" d="M353.02,228.01c0,1.27-.89,2.82-1.99,3.45-1.1.64-1.99.12-1.99-1.15s.89-2.82,1.99-3.45c1.1-.64,1.99-.12,1.99,1.15Z"/>
                <path class="cls-7" d="M353.02,236.56c0,1.27-.89,2.82-1.99,3.45-1.1.64-1.99.12-1.99-1.15s.89-2.82,1.99-3.45c1.1-.64,1.99-.12,1.99,1.15Z"/>
                <path class="cls-7" d="M353.02,245.11c0,1.27-.89,2.82-1.99,3.45-1.1.64-1.99.12-1.99-1.15s.89-2.82,1.99-3.45c1.1-.64,1.99-.12,1.99,1.15Z"/>
              </g>
              <g>
                <path class="cls-7" d="M360.42,215.19c0,1.27-.89,2.82-1.99,3.45-1.1.64-1.99.12-1.99-1.15s.89-2.82,1.99-3.45c1.1-.64,1.99-.12,1.99,1.15Z"/>
                <path class="cls-7" d="M360.42,223.74c0,1.27-.89,2.82-1.99,3.45-1.1.64-1.99.12-1.99-1.15s.89-2.82,1.99-3.45c1.1-.64,1.99-.12,1.99,1.15Z"/>
                <path class="cls-7" d="M360.42,232.29c0,1.27-.89,2.82-1.99,3.45-1.1.64-1.99.12-1.99-1.15s.89-2.82,1.99-3.45c1.1-.64,1.99-.12,1.99,1.15Z"/>
                <path class="cls-7" d="M360.42,240.83c0,1.27-.89,2.82-1.99,3.45-1.1.64-1.99.12-1.99-1.15s.89-2.82,1.99-3.45c1.1-.64,1.99-.12,1.99,1.15Z"/>
              </g>
            </g>
          </g>
          <g>
            <g>
              <polygon class="cls-2" points="335.63 216.13 152.66 110.49 211.61 76.45 394.58 182.09 335.63 216.13"/>
              <polygon class="cls-6" points="306.17 199.11 182.12 127.5 222.09 104.43 346.13 176.04 306.17 199.11"/>
              <polygon class="cls-2" points="302.17 196.8 186.12 129.81 221.68 109.28 337.72 176.28 302.17 196.8"/>
              <polygon class="cls-5" points="287.16 156.65 268.17 167.61 236.69 149.44 255.68 138.47 287.16 156.65"/>
              <polygon class="cls-6" points="276.51 154.83 265.02 161.46 247.34 151.26 258.83 144.62 276.51 154.83"/>
            </g>
            <polygon class="cls-6" points="299.4 137.64 295.43 139.94 284.62 133.69 288.59 131.4 299.4 137.64"/>
          </g>
        </g>
        <g class="cls-1">
          <polygon class="cls-6" points="228.73 372.97 133.23 317.47 131.29 315.79 226.79 371.29 228.73 372.97"/>
          <polygon class="cls-6" points="226.79 371.29 131.29 315.79 144.1 296.64 239.6 352.14 226.79 371.29"/>
          <path class="cls-7" d="M239.6,352.14l-95.5-55.5c5.26-7.85,8.25-16.78,8.23-24.51l95.5,55.5c.02,7.73-2.97,16.65-8.23,24.51Z"/>
          <polygon class="cls-7" points="247.83 327.63 152.33 272.14 152.18 220.44 247.68 275.94 247.83 327.63"/>
          <polygon class="cls-6" points="272.61 232.8 177.11 177.31 194.1 167.49 289.6 222.99 272.61 232.8"/>
          <path class="cls-4" d="M289.6,222.99v3.56s-16.98,9.81-16.98,9.81c-12.08,6.98-21.88,23.94-21.84,37.79l.15,51.69c.03,8.82-3.38,19.01-9.4,27.97l-12.8,19.15-1.93-1.68,12.8-19.15c5.26-7.85,8.25-16.78,8.23-24.51l-.15-51.69c-.05-15.84,11.14-35.18,24.92-43.14l17-9.81Z"/>
          <path class="cls-6" d="M247.68,275.94l-95.5-55.5c-.05-15.84,11.14-35.18,24.92-43.14l95.5,55.5c-13.79,7.96-24.97,27.3-24.92,43.14Z"/>
        </g>
      </g>
    </g>
  </g>
</svg>