<?xml version="1.0" encoding="UTF-8"?>
<svg id="Layer_2" data-name="Layer 2" xmlns="http://www.w3.org/2000/svg" viewBox="0 0 530.71 530.71">
  <defs>
    <style>
      .cls-1 {
        fill: #f9f9f9;
      }

      .cls-1, .cls-2, .cls-3, .cls-4, .cls-5, .cls-6, .cls-7, .cls-8, .cls-9, .cls-10, .cls-11, .cls-12, .cls-13, .cls-14, .cls-15, .cls-16, .cls-17, .cls-18, .cls-19, .cls-20, .cls-21, .cls-22, .cls-23, .cls-24, .cls-25, .cls-26, .cls-27, .cls-28, .cls-29, .cls-30, .cls-31 {
        stroke-width: 0px;
      }

      .cls-2 {
        fill: #5d5088;
      }

      .cls-3 {
        fill: #611e6d;
      }

      .cls-4 {
        fill: #60327a;
      }

      .cls-5 {
        fill: #2a186a;
      }

      .cls-6 {
        fill: #55699b;
      }

      .cls-7 {
        fill: #59bbd6;
      }

      .cls-8 {
        fill: #5795bc;
      }

      .cls-9 {
        fill: #18397c;
      }

      .cls-10 {
        fill: #242a76;
      }

      .cls-11 {
        fill: #e13c7e;
      }

      .cls-12 {
        fill: #d1d1d1;
      }

      .cls-13 {
        fill: #dedede;
      }

      .cls-14 {
        fill: #d7d7d7;
      }

      .cls-15 {
        fill: #e35388;
      }

      .cls-16 {
        fill: #dd1673;
      }

      .cls-17 {
        fill: #bdbdbd;
      }

      .cls-18 {
        fill: #b63b7e;
      }

      .cls-19 {
        fill: #b5dddd;
      }

      .cls-20 {
        fill: #b87199;
      }

      .cls-21 {
        fill: #b75087;
      }

      .cls-22 {
        fill: #9faac0;
      }

      .cls-23 {
        fill: #a21e72;
      }

      .cls-24 {
        fill: #fff;
      }

      .cls-25 {
        fill: #ffefd8;
      }

      .cls-26 {
        fill: #e8e8e8;
      }

      .cls-27 {
        fill: #ee87a4;
      }

      .cls-28 {
        fill: #f5c8c5;
      }

      .cls-29 {
        fill: #005f99;
      }

      .cls-30 {
        fill: #0092cb;
      }

      .cls-31 {
        fill: #0072a9;
      }
    </style>
  </defs>
  <g id="_ëÎÓÈ_1" data-name="ëÎÓÈ 1">
    <g>
      <path class="cls-24" d="M479.83.5c27.71,0,50.38,22.67,50.38,50.38v428.95c0,27.71-22.67,50.38-50.38,50.38H50.88c-27.71,0-50.38-22.67-50.38-50.38V50.88C.5,23.17,23.17.5,50.88.5h428.95M479.83,0H50.88C22.83,0,0,22.83,0,50.88v428.95c0,28.06,22.83,50.88,50.88,50.88h428.95c28.06,0,50.88-22.83,50.88-50.88V50.88c0-28.06-22.83-50.88-50.88-50.88h0Z"/>
      <g>
        <polygon class="cls-17" points="177.21 396.33 331.22 307.41 331.22 170.32 177.21 259.24 177.21 396.33"/>
        <polygon class="cls-12" points="180.4 398.17 334.41 309.25 334.41 172.17 180.4 261.09 180.4 398.17"/>
        <polygon class="cls-13" points="184.33 400.44 338.34 311.52 338.34 174.43 184.33 263.35 184.33 400.44"/>
        <polygon class="cls-1" points="188.48 402.83 342.49 313.91 342.49 176.83 188.48 265.75 188.48 402.83"/>
        <polygon class="cls-22" points="220.29 311.66 237.33 301.82 237.33 278.87 220.29 288.7 220.29 311.66"/>
        <polygon class="cls-20" points="244.71 297.56 261.76 287.72 261.76 264.76 244.71 274.6 244.71 297.56"/>
        <polygon class="cls-21" points="269.14 283.46 286.18 273.62 286.18 250.66 269.14 260.5 269.14 283.46"/>
        <polygon class="cls-18" points="293.56 269.35 310.61 259.52 310.61 236.56 293.56 246.4 293.56 269.35"/>
        <polygon class="cls-23" points="317.99 255.25 335.03 245.41 335.03 222.46 317.99 232.3 317.99 255.25"/>
        <polygon class="cls-19" points="195.86 325.76 212.91 315.92 212.91 292.97 195.86 302.81 195.86 325.76"/>
        <polygon class="cls-28" points="220.29 281.82 237.33 271.98 237.33 249.02 220.29 258.86 220.29 281.82"/>
        <polygon class="cls-27" points="244.71 267.71 261.76 257.88 261.76 234.92 244.71 244.76 244.71 267.71"/>
        <polygon class="cls-15" points="269.14 253.61 286.18 243.77 286.18 220.82 269.14 230.66 269.14 253.61"/>
        <polygon class="cls-11" points="293.56 239.51 310.61 229.67 310.61 206.72 293.56 216.55 293.56 239.51"/>
        <polygon class="cls-16" points="317.99 225.41 335.03 215.57 335.03 192.61 317.99 202.45 317.99 225.41"/>
        <polygon class="cls-25" points="195.86 295.92 212.91 286.08 212.91 263.12 195.86 272.96 195.86 295.92"/>
        <polygon class="cls-31" points="220.29 371.35 237.33 361.51 237.33 338.55 220.29 348.39 220.29 371.35"/>
        <polygon class="cls-29" points="244.71 357.24 261.76 347.41 261.76 324.45 244.71 334.29 244.71 357.24"/>
        <polygon class="cls-9" points="269.14 343.14 286.18 333.3 286.18 310.35 269.14 320.19 269.14 343.14"/>
        <polygon class="cls-10" points="293.56 329.04 310.61 319.2 310.61 296.25 293.56 306.08 293.56 329.04"/>
        <polygon class="cls-5" points="317.99 314.94 335.03 305.1 335.03 282.14 317.99 291.98 317.99 314.94"/>
        <polygon class="cls-30" points="195.86 385.45 212.91 375.61 212.91 352.65 195.86 362.49 195.86 385.45"/>
        <polygon class="cls-8" points="220.29 341.5 237.33 331.66 237.33 308.71 220.29 318.55 220.29 341.5"/>
        <polygon class="cls-6" points="244.71 327.4 261.76 317.56 261.76 294.61 244.71 304.45 244.71 327.4"/>
        <polygon class="cls-2" points="269.14 313.3 286.18 303.46 286.18 280.5 269.14 290.34 269.14 313.3"/>
        <polygon class="cls-4" points="293.56 299.2 310.61 289.36 310.61 266.4 293.56 276.24 293.56 299.2"/>
        <polygon class="cls-3" points="317.99 285.1 335.03 275.26 335.03 252.3 317.99 262.14 317.99 285.1"/>
        <polygon class="cls-7" points="195.86 355.61 212.91 345.77 212.91 322.81 195.86 332.65 195.86 355.61"/>
        <polygon class="cls-14" points="177.21 259.24 188.48 265.75 342.49 176.83 331.22 170.32 177.21 259.24"/>
        <path class="cls-26" d="M189.72,265.03l-1.25.72c.38.03.79-.22,1.25-.72Z"/>
        <path class="cls-26" d="M194.91,162.16c15.83,30.97,1.61,95.35-5.19,102.87l152.77-88.2c24.27-42.37.88-100.38.88-100.38l-148.46,85.71Z"/>
      </g>
    </g>
  </g>
</svg>