<?xml version="1.0" encoding="UTF-8"?>
<svg id="Layer_2" data-name="Layer 2" xmlns="http://www.w3.org/2000/svg" xmlns:xlink="http://www.w3.org/1999/xlink" viewBox="0 0 852.19 530.98">
  <defs>
    <style>
      .cls-1 {
        fill: #121212;
        opacity: .65;
      }

      .cls-1, .cls-2, .cls-3, .cls-4, .cls-5, .cls-6, .cls-7, .cls-8, .cls-9, .cls-10, .cls-11, .cls-12, .cls-13, .cls-14, .cls-15, .cls-16, .cls-17, .cls-18, .cls-19, .cls-20, .cls-21, .cls-22, .cls-23, .cls-24, .cls-25, .cls-26, .cls-27, .cls-28, .cls-29, .cls-30, .cls-31, .cls-32, .cls-33, .cls-34, .cls-35, .cls-36, .cls-37, .cls-38, .cls-39, .cls-40, .cls-41, .cls-42, .cls-43, .cls-44, .cls-45, .cls-46, .cls-47, .cls-48, .cls-49, .cls-50, .cls-51, .cls-52, .cls-53, .cls-54, .cls-55, .cls-56, .cls-57, .cls-58, .cls-59, .cls-60, .cls-61, .cls-62, .cls-63, .cls-64, .cls-65, .cls-66, .cls-67, .cls-68, .cls-69, .cls-70, .cls-71, .cls-72, .cls-73, .cls-74, .cls-75, .cls-76, .cls-77, .cls-78, .cls-79, .cls-80, .cls-81, .cls-82, .cls-83, .cls-84, .cls-85, .cls-86, .cls-87 {
        stroke-width: 0px;
      }

      .cls-1, .cls-2, .cls-3, .cls-4, .cls-5, .cls-6, .cls-7, .cls-10, .cls-11, .cls-15, .cls-16, .cls-17, .cls-18, .cls-19, .cls-20, .cls-21, .cls-22, .cls-23, .cls-24, .cls-25, .cls-26, .cls-27, .cls-28, .cls-29, .cls-30, .cls-31, .cls-32, .cls-33, .cls-34, .cls-35, .cls-36, .cls-37, .cls-38, .cls-39, .cls-40, .cls-41, .cls-42, .cls-43, .cls-44, .cls-45, .cls-46, .cls-47, .cls-48, .cls-49, .cls-50, .cls-51, .cls-52, .cls-53, .cls-54, .cls-55, .cls-56, .cls-57, .cls-58, .cls-59, .cls-60, .cls-61, .cls-62, .cls-63, .cls-64, .cls-65, .cls-67, .cls-68, .cls-69, .cls-70, .cls-71, .cls-72, .cls-73, .cls-74, .cls-82, .cls-83, .cls-84, .cls-85, .cls-86, .cls-87 {
        fill-rule: evenodd;
      }

      .cls-2 {
        fill: #222;
        opacity: .33;
      }

      .cls-3 {
        fill: #212121;
        opacity: .35;
      }

      .cls-4 {
        opacity: 0;
      }

      .cls-4, .cls-78 {
        fill: #333;
      }

      .cls-5 {
        fill: #111;
        opacity: .67;
      }

      .cls-6 {
        fill: #2d2d2d;
        opacity: .12;
      }

      .cls-7 {
        fill: #323232;
        opacity: .02;
      }

      .cls-8 {
        fill: url(#New_Gradient_Swatch_5);
      }

      .cls-9 {
        fill: url(#New_Gradient_Swatch_6);
      }

      .cls-10 {
        fill: #2a2a2a;
        opacity: .17;
      }

      .cls-11 {
        fill: #161616;
        opacity: .58;
      }

      .cls-12 {
        fill: url(#New_Gradient_Swatch_6-2);
      }

      .cls-13 {
        fill: url(#New_Gradient_Swatch_6-3);
      }

      .cls-14 {
        fill: url(#New_Gradient_Swatch_3-2);
      }

      .cls-15 {
        fill: #0f0f0f;
        opacity: .71;
      }

      .cls-16 {
        fill: #101010;
        opacity: .69;
      }

      .cls-17 {
        fill: #0e0e0e;
        opacity: .73;
      }

      .cls-18 {
        fill: #0d0d0d;
        opacity: .75;
      }

      .cls-19 {
        fill: #131313;
        opacity: .63;
      }

      .cls-20 {
        fill: #202020;
        opacity: .37;
      }

      .cls-21 {
        fill: #0c0c0c;
        opacity: .77;
      }

      .cls-22 {
        fill: #1f1f1f;
        opacity: .38;
      }

      .cls-23 {
        fill: #1e1e1e;
        opacity: .4;
      }

      .cls-24 {
        fill: url(#linear-gradient);
      }

      .cls-25 {
        fill: #2f2f2f;
        opacity: .08;
      }

      .cls-26 {
        fill: #313131;
        opacity: .04;
      }

      .cls-27 {
        fill: #0b0b0b;
        opacity: .79;
      }

      .cls-28 {
        fill: #0a0a0a;
        opacity: .81;
      }

      .cls-29 {
        fill: #292929;
        opacity: .19;
      }

      .cls-30 {
        fill: #080808;
        opacity: .85;
      }

      .cls-31 {
        fill: #1d1d1d;
        opacity: .42;
      }

      .cls-32 {
        fill: #282828;
        opacity: .21;
      }

      .cls-33 {
        fill: rgba(218, 237, 245, .73);
      }

      .cls-34 {
        fill: #070707;
        opacity: .87;
      }

      .cls-35 {
        fill: #060606;
        opacity: .88;
      }

      .cls-36 {
        fill: url(#radial-gradient);
      }

      .cls-37 {
        fill: #050505;
        opacity: .9;
      }

      .cls-38 {
        fill: #1c1c1c;
        opacity: .44;
      }

      .cls-39 {
        fill: #010101;
        opacity: .98;
      }

      .cls-40 {
        fill: url(#linear-gradient-2);
      }

      .cls-41 {
        fill: #020202;
        opacity: .96;
      }

      .cls-42 {
        fill: #272727;
        opacity: .23;
      }

      .cls-43 {
        fill: #090909;
        opacity: .83;
      }

      .cls-44 {
        fill: #040404;
        opacity: .92;
      }

      .cls-45 {
        fill: #171717;
        opacity: .56;
      }

      .cls-46 {
        opacity: .48;
      }

      .cls-46, .cls-48 {
        fill: #1a1a1a;
      }

      .cls-47 {
        fill: #2e2e2e;
        opacity: .1;
      }

      .cls-48 {
        opacity: .5;
      }

      .cls-49 {
        fill: url(#radial-gradient-2);
      }

      .cls-50 {
        fill: url(#radial-gradient-4);
      }

      .cls-51 {
        fill: url(#radial-gradient-6);
      }

      .cls-52 {
        fill: url(#radial-gradient-3);
      }

      .cls-53 {
        fill: url(#radial-gradient-5);
      }

      .cls-54 {
        fill: #676767;
      }

      .cls-55, .cls-77 {
        fill: #c1272d;
      }

      .cls-56 {
        fill: #ffc500;
      }

      .cls-57 {
        fill: red;
      }

      .cls-58, .cls-79 {
        fill: #fff;
      }

      .cls-59 {
        fill: #989898;
      }

      .cls-60 {
        fill: #262626;
        opacity: .25;
      }

      .cls-61 {
        fill: #2c2c2c;
        opacity: .13;
      }

      .cls-62 {
        fill: url(#New_Gradient_Swatch_3);
      }

      .cls-63 {
        fill: url(#New_Gradient_Swatch_4);
      }

      .cls-64 {
        fill: url(#New_Gradient_Swatch_1);
      }

      .cls-65 {
        fill: url(#New_Gradient_Swatch_7);
      }

      .cls-67 {
        fill: #181818;
        opacity: .54;
      }

      .cls-68 {
        fill: url(#New_Gradient_Swatch_4-3);
      }

      .cls-69 {
        fill: url(#New_Gradient_Swatch_4-2);
      }

      .cls-70 {
        fill: #252525;
        opacity: .27;
      }

      .cls-71 {
        fill: #1b1b1b;
        opacity: .46;
      }

      .cls-72 {
        fill: #030303;
        opacity: .94;
      }

      .cls-73 {
        fill: #151515;
        opacity: .6;
      }

      .cls-74 {
        fill: #242424;
        opacity: .29;
      }

      .cls-75 {
        fill: #4d4e4e;
      }

      .cls-76 {
        fill: #39b54a;
      }

      .cls-80 {
        fill: #f7931e;
      }

      .cls-81 {
        fill: #ffde27;
      }

      .cls-82 {
        fill: #232323;
        opacity: .31;
      }

      .cls-83 {
        fill: #141414;
        opacity: .62;
      }

      .cls-84 {
        fill: #303030;
        opacity: .06;
      }

      .cls-85 {
        fill: #191919;
        opacity: .52;
      }

      .cls-86 {
        fill: #2b2b2b;
        opacity: .15;
      }
    </style>
    <linearGradient id="New_Gradient_Swatch_6" data-name="New Gradient Swatch 6" x1="-11940.28" y1="420.41" x2="-11940.28" y2="386.3" gradientTransform="translate(-5772.47 33.73) rotate(-180) scale(.49 -.62)" gradientUnits="userSpaceOnUse">
      <stop offset=".02" stop-color="#666"/>
      <stop offset=".47" stop-color="#fff"/>
      <stop offset="1" stop-color="#666"/>
    </linearGradient>
    <linearGradient id="New_Gradient_Swatch_6-2" data-name="New Gradient Swatch 6" x1="-9102.85" y1="113.76" x2="-9102.85" y2="79.65" gradientTransform="translate(-6731.68 212.81) rotate(-180) scale(.75 -.75)" xlink:href="#New_Gradient_Swatch_6"/>
    <linearGradient id="New_Gradient_Swatch_3" data-name="New Gradient Swatch 3" x1="-5721.98" y1="2737.36" x2="-5568.31" y2="2737.36" gradientTransform="translate(-2540.09 -5398.26) rotate(-90) skewX(.06)" gradientUnits="userSpaceOnUse">
      <stop offset="0" stop-color="#cb7e0b"/>
      <stop offset=".49" stop-color="#f90"/>
      <stop offset="1" stop-color="#fcd294"/>
    </linearGradient>
    <linearGradient id="linear-gradient" x1="-9071.75" y1="159.23" x2="-9071.75" y2="134.56" gradientTransform="translate(-6692.88 210.56) rotate(-180) scale(.75 -.75)" gradientUnits="userSpaceOnUse">
      <stop offset="0" stop-color="#4d4e4e"/>
      <stop offset=".53" stop-color="#666"/>
      <stop offset="1" stop-color="#999"/>
    </linearGradient>
    <linearGradient id="New_Gradient_Swatch_5" data-name="New Gradient Swatch 5" x1="-8522.93" y1="177.46" x2="-8522.93" y2="130.88" gradientTransform="translate(-7405.44 212.81) rotate(-180) scale(.93 -.75)" gradientUnits="userSpaceOnUse">
      <stop offset=".44" stop-color="#999"/>
      <stop offset="1" stop-color="#666"/>
    </linearGradient>
    <linearGradient id="New_Gradient_Swatch_6-3" data-name="New Gradient Swatch 6" x1="-9341.01" y1="84.31" x2="-9341.01" y2="-14.34" gradientTransform="translate(-6735.38 212.81) rotate(-180) scale(.75 -.75)" xlink:href="#New_Gradient_Swatch_6"/>
    <linearGradient id="linear-gradient-2" x1="487.94" y1="278.82" x2="487.94" y2="349.49" gradientUnits="userSpaceOnUse">
      <stop offset=".25" stop-color="#000"/>
      <stop offset=".4" stop-color="#333"/>
      <stop offset=".62" stop-color="#676767"/>
    </linearGradient>
    <radialGradient id="New_Gradient_Swatch_4" data-name="New Gradient Swatch 4" cx="-8146.37" cy="-3198.19" fx="-8146.37" fy="-3198.19" r="29.54" gradientTransform="translate(-7936.86 -2856.81) rotate(-180)" gradientUnits="userSpaceOnUse">
      <stop offset=".49" stop-color="#fcd294"/>
      <stop offset=".55" stop-color="#f90"/>
      <stop offset=".76" stop-color="#cb7e0b"/>
      <stop offset=".94" stop-color="#6d4a00"/>
    </radialGradient>
    <radialGradient id="radial-gradient" cx="-8148.37" cy="-15327.97" fx="-8148.37" fy="-15327.97" r="43.53" gradientTransform="translate(-7938.86 15650.89) rotate(-180) scale(1 -1)" gradientUnits="userSpaceOnUse">
      <stop offset=".75" stop-color="#101010"/>
      <stop offset=".81" stop-color="#666"/>
      <stop offset="1" stop-color="#020202"/>
    </radialGradient>
    <radialGradient id="New_Gradient_Swatch_4-2" data-name="New Gradient Swatch 4" cx="-8564.9" fx="-8564.9" r="29.54" xlink:href="#New_Gradient_Swatch_4"/>
    <radialGradient id="radial-gradient-2" cx="-8566.83" cy="-15320.31" fx="-8566.83" fy="-15320.31" r="5.98" gradientTransform="translate(-7938.86 15662) rotate(-180) scale(1 -1)" gradientUnits="userSpaceOnUse">
      <stop offset=".43" stop-color="#777575"/>
      <stop offset=".91" stop-color="#000"/>
      <stop offset="1" stop-color="#666"/>
    </radialGradient>
    <radialGradient id="radial-gradient-3" cx="-8566.92" fx="-8566.92" r="43.54" xlink:href="#radial-gradient"/>
    <radialGradient id="New_Gradient_Swatch_4-3" data-name="New Gradient Swatch 4" cx="-8473.38" fx="-8473.38" r="29.54" xlink:href="#New_Gradient_Swatch_4"/>
    <radialGradient id="radial-gradient-4" cx="-8475.32" fx="-8475.32" r="5.98" xlink:href="#radial-gradient-2"/>
    <radialGradient id="radial-gradient-5" cx="-8475.39" fx="-8475.39" r="43.53" xlink:href="#radial-gradient"/>
    <linearGradient id="New_Gradient_Swatch_7" data-name="New Gradient Swatch 7" x1="-9361.15" y1="162.76" x2="-9361.15" y2="134.34" gradientTransform="translate(-6735.38 212.81) rotate(-180) scale(.75 -.75)" gradientUnits="userSpaceOnUse">
      <stop offset="0" stop-color="#fff"/>
      <stop offset="1" stop-color="#000"/>
    </linearGradient>
    <linearGradient id="New_Gradient_Swatch_3-2" data-name="New Gradient Swatch 3" x1="-5527.41" y1="3073.41" x2="-5489.46" y2="3073.41" gradientTransform="translate(-2539.56 -5398.26) rotate(-89.99) skewX(.06)" xlink:href="#New_Gradient_Swatch_3"/>
    <linearGradient id="New_Gradient_Swatch_1" data-name="New Gradient Swatch 1" x1="-5610.3" y1="2742.8" x2="-5568.21" y2="2742.8" gradientTransform="translate(-2540.27 -5398.26) rotate(-90) skewX(.06)" gradientUnits="userSpaceOnUse">
      <stop offset=".02" stop-color="#487080"/>
      <stop offset="1" stop-color="#8eafbd"/>
    </linearGradient>
    <radialGradient id="radial-gradient-6" cx="-8189.88" cy="-18253.19" fx="-8189.88" fy="-18253.19" r="5.97" gradientTransform="translate(-18241.01 8078.8) rotate(-136.92) scale(1 -1)" xlink:href="#radial-gradient-2"/>
  </defs>
  <g id="_ëÎÓÈ_1" data-name="ëÎÓÈ 1">
    <g>
      <path class="cls-79" d="M787.7.63c35.12,0,63.86,28.74,63.86,63.86v402c0,35.12-28.74,63.86-63.86,63.86H64.49c-35.12,0-63.86-28.74-63.86-63.86V64.49C.63,29.37,29.37.63,64.49.63h723.21M787.7,0H64.49C28.93,0,0,28.93,0,64.49v402c0,35.56,28.93,64.49,64.49,64.49h723.21c35.56,0,64.49-28.93,64.49-64.49V64.49c0-35.56-28.93-64.49-64.49-64.49h0Z"/>
      <g>
        <g>
          <polygon class="cls-4" points="99.46 402.97 181.83 352.51 656.59 352.51 752.73 402.97 99.46 402.97"/>
          <polygon class="cls-7" points="100.26 402.75 181.94 352.72 656.5 352.72 751.82 402.75 100.26 402.75"/>
          <polygon class="cls-26" points="101.07 402.54 182.05 352.93 656.4 352.93 750.92 402.54 101.07 402.54"/>
          <polygon class="cls-84" points="101.87 402.33 182.16 353.14 656.3 353.14 750.01 402.33 101.87 402.33"/>
          <polygon class="cls-25" points="102.68 402.11 182.27 353.36 656.21 353.36 749.1 402.11 102.68 402.11"/>
          <polygon class="cls-47" points="103.48 401.9 182.38 353.57 656.11 353.57 748.19 401.9 103.48 401.9"/>
          <polygon class="cls-6" points="104.28 401.69 182.49 353.78 656.01 353.78 747.29 401.69 104.28 401.69"/>
          <polygon class="cls-61" points="105.09 401.48 182.6 353.99 655.91 353.99 746.38 401.48 105.09 401.48"/>
          <polygon class="cls-86" points="105.89 401.26 182.71 354.21 655.82 354.21 745.47 401.26 105.89 401.26"/>
          <polygon class="cls-10" points="106.7 401.05 182.82 354.42 655.72 354.42 744.57 401.05 106.7 401.05"/>
          <polygon class="cls-29" points="107.5 400.84 182.93 354.63 655.62 354.63 743.66 400.84 107.5 400.84"/>
          <polygon class="cls-32" points="108.3 400.63 183.04 354.85 655.53 354.85 742.75 400.63 108.3 400.63"/>
          <polygon class="cls-42" points="109.11 400.41 183.14 355.06 655.43 355.06 741.84 400.41 109.11 400.41"/>
          <polygon class="cls-60" points="109.91 400.2 183.25 355.27 655.33 355.27 740.94 400.2 109.91 400.2"/>
          <polygon class="cls-70" points="110.71 399.99 183.36 355.48 655.24 355.48 740.03 399.99 110.71 399.99"/>
          <polygon class="cls-74" points="111.52 399.78 183.47 355.7 655.14 355.7 739.12 399.78 111.52 399.78"/>
          <polygon class="cls-82" points="112.32 399.56 183.58 355.91 655.04 355.91 738.22 399.56 112.32 399.56"/>
          <polygon class="cls-2" points="113.13 399.35 183.69 356.12 654.94 356.12 737.31 399.35 113.13 399.35"/>
          <polygon class="cls-3" points="113.93 399.14 183.8 356.33 654.85 356.33 736.4 399.14 113.93 399.14"/>
          <polygon class="cls-20" points="114.73 398.92 183.91 356.55 654.75 356.55 735.49 398.92 114.73 398.92"/>
          <polygon class="cls-22" points="115.54 398.71 184.02 356.76 654.65 356.76 734.59 398.71 115.54 398.71"/>
          <polygon class="cls-23" points="116.34 398.5 184.13 356.97 654.56 356.97 733.68 398.5 116.34 398.5"/>
          <polygon class="cls-31" points="117.15 398.29 184.24 357.19 654.46 357.19 732.77 398.29 117.15 398.29"/>
          <polygon class="cls-38" points="117.95 398.07 184.35 357.4 654.36 357.4 731.87 398.07 117.95 398.07"/>
          <polygon class="cls-71" points="118.75 397.86 184.46 357.61 654.27 357.61 730.96 397.86 118.75 397.86"/>
          <polygon class="cls-46" points="119.56 397.65 184.57 357.82 654.17 357.82 730.05 397.65 119.56 397.65"/>
          <polygon class="cls-48" points="120.36 397.44 184.68 358.04 654.07 358.04 729.14 397.44 120.36 397.44"/>
          <polygon class="cls-85" points="121.16 397.22 184.79 358.25 653.98 358.25 728.24 397.22 121.16 397.22"/>
          <polygon class="cls-67" points="121.97 397.01 184.9 358.46 653.88 358.46 727.33 397.01 121.97 397.01"/>
          <polygon class="cls-45" points="122.77 396.8 185 358.67 653.78 358.67 726.42 396.8 122.77 396.8"/>
          <polygon class="cls-11" points="123.58 396.58 185.11 358.89 653.68 358.89 725.52 396.58 123.58 396.58"/>
          <polygon class="cls-73" points="124.38 396.37 185.22 359.1 653.59 359.1 724.61 396.37 124.38 396.37"/>
          <polygon class="cls-83" points="125.18 396.16 185.33 359.31 653.49 359.31 723.7 396.16 125.18 396.16"/>
          <polygon class="cls-19" points="125.99 395.95 185.44 359.52 653.39 359.52 722.79 395.95 125.99 395.95"/>
          <polygon class="cls-1" points="126.79 395.73 185.55 359.74 653.3 359.74 721.89 395.73 126.79 395.73"/>
          <polygon class="cls-5" points="127.6 395.52 185.66 359.95 653.2 359.95 720.98 395.52 127.6 395.52"/>
          <polygon class="cls-16" points="128.4 395.31 185.77 360.16 653.1 360.16 720.07 395.31 128.4 395.31"/>
          <polygon class="cls-15" points="129.2 395.1 185.88 360.38 653.01 360.38 719.17 395.1 129.2 395.1"/>
          <polygon class="cls-17" points="130.01 394.88 185.99 360.59 652.91 360.59 718.26 394.88 130.01 394.88"/>
          <polygon class="cls-18" points="130.81 394.67 186.1 360.8 652.81 360.8 717.35 394.67 130.81 394.67"/>
          <polygon class="cls-21" points="131.61 394.46 186.21 361.01 652.71 361.01 716.44 394.46 131.61 394.46"/>
          <polygon class="cls-27" points="132.42 394.25 186.32 361.23 652.62 361.23 715.54 394.25 132.42 394.25"/>
          <polygon class="cls-28" points="133.22 394.03 186.43 361.44 652.52 361.44 714.63 394.03 133.22 394.03"/>
          <polygon class="cls-43" points="134.03 393.82 186.54 361.65 652.42 361.65 713.72 393.82 134.03 393.82"/>
          <polygon class="cls-30" points="134.83 393.61 186.65 361.86 652.33 361.86 712.82 393.61 134.83 393.61"/>
          <polygon class="cls-34" points="135.63 393.39 186.76 362.08 652.23 362.08 711.91 393.39 135.63 393.39"/>
          <polygon class="cls-35" points="136.44 393.18 186.86 362.29 652.13 362.29 711 393.18 136.44 393.18"/>
          <polygon class="cls-37" points="137.24 392.97 186.97 362.5 652.04 362.5 710.09 392.97 137.24 392.97"/>
          <polygon class="cls-44" points="138.05 392.76 187.08 362.71 651.94 362.71 709.19 392.76 138.05 392.76"/>
          <polygon class="cls-72" points="138.85 392.54 187.19 362.93 651.84 362.93 708.28 392.54 138.85 392.54"/>
          <polygon class="cls-41" points="139.65 392.33 187.3 363.14 651.75 363.14 707.37 392.33 139.65 392.33"/>
          <polygon class="cls-39" points="140.46 392.12 187.41 363.35 651.65 363.35 706.46 392.12 140.46 392.12"/>
          <polygon class="cls-87" points="705.56 391.91 141.26 391.91 187.52 363.57 651.55 363.57 705.56 391.91"/>
        </g>
        <path class="cls-87" d="M327.36,173.92c-6.06-9.52-19.16-3.48-25-11.86-2.59-3.72-2.09-9.24-3.48-13.44-1.25-3.78-4.24-5.81-7.82-7.1-2.58-.93-3.79,3.15-1.23,4.07,8.24,2.97,5.48,15.37,11.11,21.41,6.09,6.54,17.63,1.03,22.7,8.98,1.46,2.3,5.2.26,3.72-2.05Z"/>
        <path class="cls-55" d="M323.77,159.74c-4.79.32-6.24-7.42-7.7-10.81-1.9-4.41-5.01-7.78-10.14-6.92-2.7.46-1.66,4.57,1.03,4.12,4.59-.77,6.23,7.01,7.51,10.12,1.65,3.99,4.35,8.06,9.19,7.74,2.71-.18,2.84-4.43.11-4.25Z"/>
        <g>
          <rect class="cls-75" x="264.99" y="78.64" width="59.89" height="64.19"/>
          <path class="cls-66" d="M325.92,143.88h-61.98v-66.28h61.98v66.28ZM266.04,141.79h57.8v-62.1h-57.8v62.1Z"/>
          <path class="cls-54" d="M319.95,88.87c0,2.8-10.9,5.07-24.33,5.07s-24.33-2.27-24.33-5.07,10.89-5.06,24.33-5.06,24.33,2.27,24.33,5.06Z"/>
        </g>
        <path class="cls-58" d="M110.08,293.97c.62,2.33,1.38,3.5,2.27,3.5s1.67-1.17,2.32-3.5c.62-2.3.92-5.09.92-8.39s-.31-6.11-.92-8.45c-.65-2.3-1.43-3.45-2.32-3.45s-1.65,1.15-2.27,3.45c-.65,2.33-.97,5.15-.97,8.45s.33,6.09.97,8.39Z"/>
        <rect class="cls-9" x="111.64" y="272.72" width="4.9" height="25.22"/>
        <rect class="cls-12" x="113.57" y="270.14" width="7.47" height="30.37"/>
        <g>
          <g>
            <path class="cls-62" d="M148.9,173.8c1.92-3.75,9.25-6.71,21.99-8.9,11.65-2.06,25.46-3.11,41.44-3.15,16.03-.05,30.07.94,42.13,2.94,13.24,2.19,21.26,5.23,24.04,9.11.28,10.09.37,34.18.28,72.26v10.28c0,6.48-.02,13.36-.07,20.62v4.59c-.04,15.53-.11,32.65-.21,51.37H121.08c-2.46-13.93-4.11-28.02-4.93-42.26-.14-3.2-.26-6.23-.35-9.11-.05-1.6-.07-3.13-.07-4.59.09-8.72.82-15.6,2.19-20.62,1.69-6.12,4.38-9.43,8.08-9.93.05-.14.09-.25.13-.34,14.89-47.08,22.47-71.17,22.74-72.26Z"/>
            <path class="cls-66" d="M278.49,333.56H121.08c-.31,0-.58-.22-.63-.53-2.46-13.89-4.12-28.14-4.95-42.33-.13-3.21-.25-6.25-.34-9.13-.05-1.61-.07-3.15-.07-4.61.09-8.74.84-15.73,2.22-20.78,1.7-6.16,4.47-9.63,8.24-10.34,0-.02.02-.04.03-.05,14.78-46.75,22.42-71.05,22.69-72.14.01-.05.03-.09.05-.13,2.04-3.97,9.38-7,22.45-9.25,11.62-2.05,25.6-3.11,41.55-3.16h1.07c15.55,0,29.4.99,41.17,2.96,13.54,2.24,21.54,5.31,24.46,9.37.07.1.11.23.12.36.27,10.04.37,34.35.27,72.28v10.27c0,6.48-.02,13.36-.07,20.62v4.59c-.05,15.53-.12,32.66-.21,51.38,0,.35-.29.64-.64.64ZM121.63,332.27h156.23c.09-18.47.16-35.38.2-50.73v-4.59c.05-7.26.07-14.13.07-20.62v-10.28c.09-37.66,0-61.9-.27-72.04-2.78-3.65-10.69-6.58-23.51-8.7-11.69-1.95-25.47-2.94-40.95-2.94h-1.07c-15.87.05-29.78,1.1-41.33,3.14-12.4,2.14-19.63,5-21.5,8.51-.52,1.88-8.17,26.17-22.73,72.22-.07.16-.11.25-.14.36-.08.23-.28.4-.52.43-3.4.46-5.94,3.65-7.55,9.46-1.35,4.94-2.08,11.83-2.17,20.45,0,1.45.02,2.97.07,4.56.09,2.87.2,5.91.34,9.1.8,13.96,2.43,27.97,4.83,41.65Z"/>
          </g>
          <g>
            <path class="cls-24" d="M154.61,320.7c0-2.85-1-5.29-2.99-7.31-2.03-1.99-4.47-2.99-7.32-2.99h-23.2c-2.85,0-5.28,1-7.27,2.99-2.03,2.03-3.04,4.46-3.04,7.31v8.24c0,2.84,1.02,5.27,3.04,7.26,1.99,2.02,4.42,3.04,7.27,3.04h23.2c2.85,0,5.29-1.01,7.32-3.04,1.99-1.99,2.99-4.41,2.99-7.26v-8.24Z"/>
            <path class="cls-66" d="M144.3,339.87h-23.2c-3.02,0-5.62-1.09-7.72-3.23-2.14-2.1-3.23-4.69-3.23-7.71v-8.24c0-3.01,1.09-5.63,3.23-7.77,2.11-2.1,4.7-3.17,7.72-3.17h23.2c3.01,0,5.62,1.07,7.76,3.17,2.11,2.15,3.18,4.76,3.18,7.77v8.24c0,3.01-1.07,5.61-3.18,7.71-2.14,2.14-4.76,3.23-7.77,3.23ZM121.11,311.04c-2.67,0-4.95.94-6.81,2.8-1.92,1.92-2.85,4.16-2.85,6.86v8.24c0,2.69.93,4.92,2.85,6.8,1.89,1.92,4.12,2.85,6.82,2.85h23.2c2.7,0,4.94-.93,6.86-2.85,1.88-1.88,2.8-4.11,2.8-6.8v-8.24c0-2.7-.92-4.94-2.8-6.87-1.91-1.88-4.16-2.79-6.86-2.79h-23.2Z"/>
          </g>
        </g>
        <g>
          <path class="cls-87" d="M156.17,333.04h106.53c-.92-12.9-6.09-24.05-15.51-33.46-10.44-10.43-23.04-15.65-37.78-15.65s-27.31,5.22-37.73,15.65c-9.42,9.41-14.59,20.56-15.51,33.46Z"/>
          <path class="cls-66" d="M156.17,333.68h-.05c-.35-.02-.62-.33-.59-.69.93-12.99,6.21-24.39,15.7-33.86,10.49-10.51,23.33-15.84,38.18-15.84s27.71,5.33,38.23,15.83c9.49,9.48,14.77,20.87,15.7,33.87.02.36-.24.66-.59.69-.33.03-.66-.24-.68-.59-.91-12.68-6.06-23.8-15.33-33.06-10.27-10.26-22.83-15.46-37.33-15.46s-27.04,5.21-37.27,15.46c-9.27,9.25-14.42,20.37-15.33,33.06-.02.34-.31.59-.64.59ZM275.28,333.32c-.34,0-.62-.26-.64-.6-1.12-15.73-7.51-29.53-18.99-41.03-12.77-12.72-28.36-19.17-46.34-19.17s-33.54,6.45-46.24,19.17c-5.96,5.97-10.6,12.61-13.79,19.73-.14.32-.52.47-.85.32-.32-.15-.47-.53-.32-.85,3.25-7.27,7.97-14.03,14.05-20.11,12.95-12.97,28.81-19.54,47.15-19.54s34.23,6.57,47.25,19.54c11.71,11.72,18.22,25.8,19.36,41.84.02.35-.24.66-.6.69h-.04Z"/>
        </g>
        <g>
          <path class="cls-57" d="M693.89,323.19h-4.86l.07-15.48h4.79c1.1.45,1.99,1.44,2.67,2.94.59,1.41.89,3.01.89,4.8.05,1.83-.23,3.42-.82,4.8-.59,1.55-1.51,2.53-2.74,2.95Z"/>
          <path class="cls-66" d="M693.89,323.83h-4.86c-.17,0-.34-.06-.46-.19-.12-.12-.19-.28-.19-.45l.07-15.48c0-.35.29-.64.64-.64h4.79c.09,0,.17.02.24.05,1.25.52,2.26,1.62,3.01,3.27.63,1.5.95,3.2.95,5.06.04,1.9-.25,3.6-.87,5.05-.66,1.71-1.71,2.83-3.13,3.3-.07.02-.13.03-.2.03ZM689.68,322.55h4.11c1.01-.37,1.74-1.2,2.25-2.53.56-1.31.82-2.83.78-4.55,0-1.7-.28-3.23-.84-4.56-.58-1.28-1.32-2.14-2.22-2.55h-4.02l-.06,14.2Z"/>
        </g>
        <g>
          <rect class="cls-8" x="278.29" y="307.72" width="410.19" height="24.71"/>
          <path class="cls-66" d="M688.48,333.07h-410.19c-.35,0-.64-.29-.64-.64v-24.71c0-.36.29-.64.64-.64h410.19c.35,0,.64.29.64.64v24.71c0,.36-.29.64-.64.64ZM278.93,331.78h408.91v-23.43h-408.91v23.43Z"/>
        </g>
        <g>
          <rect class="cls-78" x="278.66" y="183.18" width="6.7" height="105.99"/>
          <path class="cls-66" d="M285.36,289.81h-6.7c-.36,0-.65-.29-.65-.64v-105.99c0-.36.29-.64.65-.64h6.7c.35,0,.64.29.64.64v105.99c0,.36-.29.64-.64.64ZM279.3,288.53h5.42v-104.71h-5.42v104.71Z"/>
        </g>
        <g>
          <rect class="cls-13" x="285.33" y="198.59" width="14.95" height="77.73"/>
          <path class="cls-66" d="M300.27,276.96h-14.95c-.36,0-.64-.29-.64-.64v-77.73c0-.35.28-.64.64-.64h14.95c.35,0,.64.29.64.64v77.73c0,.35-.28.64-.64.64ZM285.97,275.68h13.67v-76.45h-13.67v76.45Z"/>
        </g>
        <g>
          <rect class="cls-66" x="460.13" y="321.57" width="52.82" height="6.18" transform="translate(47.02 710.6) rotate(-75)"/>
          <path class="cls-66" d="M482.69,351.61c-.05,0-.11,0-.16-.02l-5.98-1.6c-.34-.09-.54-.44-.45-.78l13.67-51.02c.04-.16.15-.31.3-.39.15-.08.32-.1.49-.06l5.97,1.6c.34.09.54.44.45.78l-13.67,51.02c-.04.17-.15.31-.3.39-.1.06-.21.09-.32.09ZM477.5,348.91l4.73,1.27,13.34-49.78-4.74-1.27-13.34,49.78Z"/>
        </g>
        <g>
          <rect class="cls-66" x="676.02" y="299.58" width="6.18" height="52.82" transform="translate(-61.23 186.89) rotate(-15)"/>
          <path class="cls-66" d="M682.96,352.93c-.11,0-.22-.03-.32-.09-.15-.09-.26-.23-.3-.39l-13.67-51.02c-.04-.17-.02-.34.06-.48.09-.15.22-.26.39-.3l5.98-1.6c.34-.09.69.11.78.45l13.67,51.02c.09.35-.11.7-.46.79l-5.97,1.6c-.05.01-.11.02-.16.02ZM670.07,301.73l13.34,49.78,4.73-1.27-13.34-49.78-4.74,1.27Z"/>
        </g>
        <g>
          <path class="cls-40" d="M337.74,294.97c.14.04.25.09.34.14v-.41c-.09.09-.2.19-.34.27ZM306.44,287.57c5.57-.69,9.09-.58,10.55.34.78,1.28,1.72,2.19,2.81,2.74l7.06.2c.51,0,.98-.14,1.44-.41.55-.27.89-.41,1.03-.41,3.29-.46,5.37-.69,6.24-.69,1,0,1.85.23,2.53.69v-.62h352.53v17.88h-263.41v31.92c0,6.85-3.42,10.27-10.28,10.27h-69.05c-6.85,0-10.27-3.43-10.27-10.27v-33.43c0-1,.07-1.94.2-2.81-2.06,0-3.72-.23-5-.68-1.64-.55-2.81-.85-3.5-.89-1.96-.27-4.73-.3-8.28-.07-3.06-.05-5.57-.96-7.54-2.74l-4.52-.07c-1.55,0-3.86.11-6.92.34-1.78.09-2.94.02-3.49-.21-.64-.32-1.17-1.1-1.58-2.33-.09-.32-.61-2.32-1.57-6.03-.87-3.51-3.66-5.3-8.36-5.34h-1.78v-6.1c1.69-.13,3.83,0,6.44.41.73.14,1.42.27,2.06.41,1.37.32,2.49.66,3.36,1.03.96.37,1.67.78,2.12,1.23,1.6,1.1,4,2.97,7.19,5.62Z"/>
          <g>
            <path class="cls-66" d="M690.61,287.33h-354c-.34-.05-.7-.07-1.06-.07-.62,0-1.96.07-6.44.69-.46.04-.94.21-1.76.62-.31.18-.43.19-.51.19l-6.48-.19c-.6-.39-1.12-.96-1.6-1.75l-.26-.43-.42-.26c-1.2-.75-2.98-1.1-5.62-1.1-1.5,0-3.31.12-5.39.35-2.77-2.28-4.96-3.99-6.52-5.07-.67-.62-1.55-1.13-2.71-1.56-.91-.38-2.15-.76-3.62-1.1-.68-.15-1.39-.29-2.14-.43-2.11-.33-3.93-.5-5.48-.5-.53,0-1.04.02-1.52.06l-1.92.15v10.13h3.87c4.8.05,5.9,2.03,6.32,3.75.97,3.75,1.5,5.77,1.59,6.09.63,1.9,1.49,3.06,2.66,3.64.8.34,1.7.46,3.04.46.44,0,.94-.01,1.49-.04,3.01-.22,5.28-.34,6.81-.34l3.74.05c2.24,1.78,5.02,2.7,8.29,2.75,1.73-.1,3.14-.16,4.38-.16,1.45,0,2.67.07,3.65.21.38.03,1.12.13,3.12.8.96.34,2.08.58,3.38.7-.01.27-.02.54-.02.81v33.43c0,7.97,4.39,12.37,12.37,12.37h69.05c7.98,0,12.37-4.39,12.37-12.37v-29.83h263.41v-22.06h-2.09ZM690.61,307.3h-263.41v31.92c0,6.85-3.42,10.27-10.28,10.27h-69.05c-6.85,0-10.27-3.43-10.27-10.27v-33.43c0-1,.07-1.94.2-2.81-2.06,0-3.72-.23-5-.68-1.64-.55-2.81-.85-3.5-.89-1.07-.15-2.38-.23-3.93-.23-1.28,0-2.74.05-4.35.16-3.06-.05-5.57-.96-7.54-2.74l-4.52-.07c-1.55,0-3.86.11-6.92.34-.51.03-.98.04-1.38.04-1.01,0-1.72-.08-2.11-.25-.64-.32-1.17-1.1-1.58-2.33-.09-.32-.61-2.32-1.57-6.03-.87-3.51-3.66-5.3-8.36-5.34h-1.78v-6.1c.42-.03.87-.05,1.35-.05,1.44,0,3.14.15,5.09.46.73.14,1.42.27,2.06.41,1.37.32,2.49.66,3.36,1.03.96.37,1.67.78,2.12,1.23,1.6,1.1,4,2.97,7.19,5.62,2.39-.3,4.4-.44,6.03-.44,2.18,0,3.68.26,4.51.78.78,1.28,1.72,2.19,2.81,2.74l7.06.2c.51,0,.98-.14,1.44-.41.55-.27.89-.41,1.03-.41,3.29-.46,5.37-.69,6.24-.69,1,0,1.85.23,2.53.69v-.62h352.53v17.88Z"/>
            <path class="cls-66" d="M338.08,295.1v-.41c-.09.09-.2.19-.34.27.14.04.25.09.34.14Z"/>
          </g>
        </g>
        <path class="cls-87" d="M193.21,319.15c1.32-.41,2.29-.32,2.88.28.55.5.59,1.37.13,2.6-.5,1.37-1.37,2.67-2.6,3.9-1.32,1.32-2.63,2.19-3.9,2.61-1.33.55-2.26.55-2.81,0-.64-.55-.71-1.51-.21-2.88.5-1.28,1.4-2.53,2.67-3.77,1.28-1.28,2.55-2.19,3.83-2.74ZM209.45,313.53c1.78,0,3.33.3,4.66.89,1.23.55,1.85,1.26,1.85,2.13,0,.82-.62,1.5-1.85,2.05-1.32.55-2.88.82-4.66.82s-3.36-.28-4.6-.82c-1.27-.55-1.91-1.23-1.91-2.05,0-.87.64-1.58,1.91-2.13,1.24-.59,2.77-.89,4.6-.89ZM225.34,319.08c1.32.41,2.61,1.27,3.83,2.6,1.28,1.24,2.17,2.54,2.67,3.91.45,1.23.41,2.15-.14,2.74-.59.55-1.51.59-2.74.14-1.28-.51-2.58-1.37-3.9-2.6-1.28-1.32-2.15-2.63-2.6-3.91-.5-1.28-.48-2.19.07-2.74.59-.59,1.53-.64,2.81-.13ZM222.46,361.27c.41-1.28,1.25-2.56,2.54-3.83,1.28-1.28,2.6-2.15,3.97-2.61,1.23-.5,2.15-.48,2.74.07.55.64.59,1.57.14,2.81-.5,1.37-1.4,2.67-2.67,3.9-1.23,1.28-2.51,2.12-3.83,2.53-1.28.55-2.22.55-2.81,0-.59-.64-.62-1.6-.07-2.88ZM237.74,341.62c0,1.78-.27,3.31-.82,4.59-.6,1.23-1.31,1.84-2.13,1.84s-1.51-.61-2.06-1.84c-.59-1.28-.89-2.81-.89-4.59s.29-3.36.89-4.59c.55-1.28,1.24-1.92,2.06-1.92s1.53.64,2.13,1.92c.55,1.23.82,2.76.82,4.59ZM196.3,361.14c.41,1.33.32,2.26-.27,2.81-.55.55-1.44.59-2.67.13-1.37-.5-2.69-1.39-3.97-2.67-1.28-1.28-2.15-2.58-2.6-3.9-.5-1.24-.46-2.13.14-2.67.54-.55,1.5-.62,2.87-.2,1.28.46,2.56,1.32,3.84,2.6,1.28,1.33,2.17,2.63,2.67,3.9ZM202.94,366.89c0-.82.64-1.53,1.91-2.12,1.24-.6,2.77-.89,4.6-.89s3.33.3,4.66.89c1.23.59,1.85,1.3,1.85,2.12s-.62,1.51-1.85,2.06c-1.32.55-2.88.82-4.66.82s-3.36-.27-4.6-.82c-1.27-.55-1.91-1.23-1.91-2.06ZM187.32,341.62c0,1.78-.27,3.31-.82,4.59-.59,1.23-1.3,1.84-2.12,1.84s-1.51-.61-2.06-1.84c-.55-1.28-.82-2.81-.82-4.59s.27-3.36.82-4.59c.55-1.28,1.23-1.92,2.06-1.92s1.53.64,2.12,1.92c.55,1.23.82,2.76.82,4.59Z"/>
        <path class="cls-63" d="M225.34,319.08c-1.28-.5-2.22-.46-2.81.13-.55.55-.57,1.46-.07,2.74.46,1.28,1.32,2.58,2.6,3.91,1.32,1.23,2.62,2.1,3.9,2.6,1.23.46,2.15.41,2.74-.14.55-.6.59-1.51.14-2.74-.5-1.37-1.4-2.67-2.67-3.91-1.23-1.32-2.51-2.19-3.83-2.6ZM209.45,313.53c-1.83,0-3.36.3-4.6.89-1.27.55-1.91,1.26-1.91,2.13,0,.82.64,1.5,1.91,2.05,1.24.55,2.77.82,4.6.82s3.33-.28,4.66-.82c1.23-.55,1.85-1.23,1.85-2.05,0-.87-.62-1.58-1.85-2.13-1.32-.59-2.88-.89-4.66-.89ZM193.21,319.15c-1.28.55-2.56,1.46-3.83,2.74-1.28,1.23-2.17,2.49-2.67,3.77-.5,1.37-.43,2.33.21,2.88.54.55,1.48.55,2.81,0,1.28-.41,2.58-1.28,3.9-2.61,1.23-1.23,2.1-2.53,2.6-3.9.46-1.23.41-2.1-.13-2.6-.59-.6-1.55-.69-2.88-.28ZM209.51,328.95c-3.42,0-6.34,1.21-8.77,3.63-2.42,2.42-3.62,5.34-3.62,8.76s1.21,6.33,3.62,8.7c2.43,2.46,5.35,3.7,8.77,3.7s6.35-1.23,8.77-3.7c2.42-2.37,3.63-5.27,3.63-8.7s-1.21-6.35-3.63-8.76c-2.42-2.42-5.34-3.63-8.77-3.63ZM202.94,366.89c0,.82.64,1.51,1.91,2.06,1.24.55,2.77.82,4.6.82s3.33-.27,4.66-.82c1.23-.55,1.85-1.23,1.85-2.06s-.62-1.53-1.85-2.12c-1.32-.6-2.88-.89-4.66-.89s-3.36.3-4.6.89c-1.27.59-1.91,1.3-1.91,2.12ZM196.3,361.14c-.5-1.28-1.39-2.58-2.67-3.9-1.28-1.28-2.56-2.15-3.84-2.6-1.37-.41-2.33-.34-2.87.2-.6.55-.64,1.44-.14,2.67.46,1.32,1.33,2.62,2.6,3.9,1.28,1.28,2.6,2.17,3.97,2.67,1.23.46,2.12.41,2.67-.13.6-.55.69-1.48.27-2.81ZM237.74,341.62c0-1.83-.27-3.36-.82-4.59-.6-1.28-1.31-1.92-2.13-1.92s-1.51.64-2.06,1.92c-.59,1.23-.89,2.76-.89,4.59s.29,3.31.89,4.59c.55,1.23,1.24,1.84,2.06,1.84s1.53-.61,2.13-1.84c.55-1.28.82-2.81.82-4.59ZM222.46,361.27c-.55,1.28-.52,2.24.07,2.88.59.55,1.53.55,2.81,0,1.32-.41,2.61-1.25,3.83-2.53,1.28-1.23,2.17-2.53,2.67-3.9.45-1.24.41-2.17-.14-2.81-.59-.55-1.51-.57-2.74-.07-1.37.46-2.69,1.33-3.97,2.61-1.28,1.28-2.12,2.55-2.54,3.83ZM239.04,341.34c0,8.18-2.88,15.12-8.63,20.82-5.8,5.85-12.76,8.77-20.89,8.77s-15.09-2.92-20.89-8.77c-5.76-5.71-8.63-12.65-8.63-20.82s2.88-15.09,8.63-20.89c5.8-5.76,12.76-8.63,20.89-8.63s15.09,2.88,20.89,8.63c5.75,5.8,8.63,12.76,8.63,20.89ZM187.32,341.62c0-1.83-.27-3.36-.82-4.59-.59-1.28-1.3-1.92-2.12-1.92s-1.51.64-2.06,1.92c-.55,1.23-.82,2.76-.82,4.59s.27,3.31.82,4.59c.55,1.23,1.23,1.84,2.06,1.84s1.53-.61,2.12-1.84c.55-1.28.82-2.81.82-4.59Z"/>
        <path class="cls-58" d="M240.61,341.34c0,8.59-3.04,15.91-9.11,21.99-6.07,6.07-13.4,9.11-21.99,9.11s-15.91-3.04-21.98-9.11c-6.07-6.08-9.11-13.4-9.11-21.99s3.04-15.89,9.11-21.91c6.07-6.07,13.4-9.11,21.98-9.11s15.91,3.04,21.99,9.11c6.08,6.03,9.11,13.33,9.11,21.91ZM239.04,341.34c0-8.13-2.88-15.09-8.63-20.89-5.8-5.76-12.76-8.63-20.89-8.63s-15.09,2.88-20.89,8.63c-5.76,5.8-8.63,12.76-8.63,20.89s2.88,15.12,8.63,20.82c5.8,5.85,12.76,8.77,20.89,8.77s15.09-2.92,20.89-8.77c5.75-5.71,8.63-12.65,8.63-20.82Z"/>
        <path class="cls-36" d="M240.61,341.34c0-8.58-3.04-15.89-9.11-21.91-6.07-6.07-13.4-9.11-21.99-9.11s-15.91,3.04-21.98,9.11c-6.07,6.03-9.11,13.33-9.11,21.91s3.04,15.91,9.11,21.99c6.07,6.07,13.4,9.11,21.98,9.11s15.91-3.04,21.99-9.11c6.08-6.08,9.11-13.4,9.11-21.99ZM240.13,371.83c-8.49,8.45-18.7,12.67-30.62,12.67s-22.1-4.23-30.55-12.67c-8.45-8.4-12.67-18.56-12.67-30.48s4.23-22.1,12.67-30.55c8.45-8.45,18.63-12.67,30.55-12.67s22.13,4.22,30.62,12.67c8.4,8.45,12.6,18.63,12.6,30.55s-4.2,22.08-12.6,30.48Z"/>
        <path class="cls-66" d="M209.51,385.14c-12.03,0-22.47-4.32-31-12.86-8.53-8.48-12.86-18.9-12.86-30.94s4.33-22.47,12.86-31c8.53-8.53,18.96-12.86,31-12.86s22.5,4.32,31.07,12.86c8.49,8.54,12.79,18.96,12.79,31s-4.31,22.45-12.79,30.94c-8.58,8.53-19.03,12.86-31.07,12.86ZM209.51,298.76c-11.68,0-21.81,4.2-30.1,12.48-8.28,8.28-12.49,18.41-12.49,30.09s4.2,21.79,12.49,30.03c8.29,8.28,18.41,12.48,30.1,12.48s21.84-4.2,30.17-12.48c8.23-8.24,12.41-18.34,12.41-30.03s-4.18-21.81-12.42-30.09c-8.33-8.28-18.47-12.48-30.16-12.48ZM209.51,373.08c-8.72,0-16.27-3.13-22.44-9.3-6.17-6.17-9.3-13.72-9.3-22.44s3.13-16.25,9.3-22.37c6.17-6.17,13.72-9.3,22.44-9.3s16.27,3.12,22.44,9.3c6.17,6.12,9.3,13.65,9.3,22.37s-3.13,16.27-9.3,22.44c-6.17,6.17-13.72,9.3-22.44,9.3ZM209.51,310.96c-8.37,0-15.61,3-21.53,8.92-5.92,5.88-8.92,13.1-8.92,21.46s3,15.62,8.92,21.54c5.92,5.92,13.16,8.92,21.53,8.92s15.62-3.01,21.54-8.92c5.92-5.92,8.92-13.17,8.92-21.54s-3.01-15.59-8.92-21.46c-5.92-5.92-13.16-8.93-21.54-8.93ZM209.51,371.58c-8.27,0-15.45-3.01-21.35-8.96-5.85-5.8-8.82-12.96-8.82-21.28s2.97-15.44,8.82-21.34c5.9-5.85,13.08-8.82,21.35-8.82s15.45,2.96,21.34,8.82c5.85,5.9,8.82,13.08,8.82,21.34s-2.97,15.47-8.82,21.28c-5.89,5.94-13.07,8.95-21.34,8.95ZM209.51,312.46c-7.91,0-14.79,2.84-20.44,8.45-5.6,5.65-8.44,12.52-8.44,20.44s2.84,14.81,8.44,20.37c5.65,5.69,12.52,8.58,20.44,8.58s14.79-2.89,20.44-8.58c5.6-5.56,8.44-12.41,8.44-20.37s-2.84-14.79-8.44-20.44c-5.65-5.6-12.52-8.44-20.44-8.44Z"/>
        <path class="cls-87" d="M611.74,319.15c1.32-.41,2.28-.32,2.88.28.55.5.59,1.37.13,2.6-.5,1.37-1.37,2.67-2.6,3.9-1.32,1.32-2.63,2.19-3.9,2.61-1.32.55-2.26.55-2.81,0-.65-.55-.71-1.51-.21-2.88.5-1.28,1.39-2.53,2.67-3.77,1.28-1.28,2.55-2.19,3.83-2.74ZM627.98,313.53c1.78,0,3.33.3,4.66.89,1.23.55,1.85,1.26,1.85,2.13,0,.82-.62,1.5-1.85,2.05-1.33.55-2.88.82-4.66.82s-3.36-.28-4.6-.82c-1.28-.55-1.91-1.23-1.91-2.05,0-.87.64-1.58,1.91-2.13,1.23-.59,2.77-.89,4.6-.89ZM643.87,319.08c1.32.41,2.61,1.27,3.84,2.6,1.28,1.24,2.17,2.54,2.67,3.91.45,1.23.41,2.15-.14,2.74-.59.55-1.5.59-2.74.14-1.28-.51-2.58-1.37-3.91-2.6-1.28-1.32-2.14-2.63-2.6-3.91-.5-1.28-.48-2.19.07-2.74.59-.59,1.53-.64,2.81-.13ZM640.99,361.27c.41-1.28,1.25-2.56,2.53-3.83,1.28-1.28,2.6-2.15,3.97-2.61,1.24-.5,2.15-.48,2.74.07.55.64.59,1.57.14,2.81-.5,1.37-1.4,2.67-2.67,3.9-1.23,1.28-2.51,2.12-3.84,2.53-1.28.55-2.22.55-2.81,0-.59-.64-.62-1.6-.07-2.88ZM656.27,341.62c0,1.78-.27,3.31-.82,4.59-.6,1.23-1.3,1.84-2.12,1.84s-1.51-.61-2.06-1.84c-.59-1.28-.89-2.81-.89-4.59s.29-3.36.89-4.59c.55-1.28,1.23-1.92,2.06-1.92s1.52.64,2.12,1.92c.55,1.23.82,2.76.82,4.59ZM614.82,361.14c.41,1.33.33,2.26-.27,2.81-.55.55-1.44.59-2.67.13-1.37-.5-2.7-1.39-3.97-2.67-1.28-1.28-2.15-2.58-2.6-3.9-.5-1.24-.45-2.13.14-2.67.54-.55,1.5-.62,2.87-.2,1.28.46,2.56,1.32,3.84,2.6,1.28,1.33,2.17,2.63,2.67,3.9ZM621.47,366.89c0-.82.64-1.53,1.91-2.12,1.23-.6,2.77-.89,4.6-.89s3.33.3,4.66.89c1.23.59,1.85,1.3,1.85,2.12s-.62,1.51-1.85,2.06c-1.33.55-2.88.82-4.66.82s-3.36-.27-4.6-.82c-1.28-.55-1.91-1.23-1.91-2.06ZM605.85,341.62c0,1.78-.27,3.31-.82,4.59-.59,1.23-1.3,1.84-2.12,1.84s-1.51-.61-2.06-1.84c-.55-1.28-.82-2.81-.82-4.59s.27-3.36.82-4.59c.55-1.28,1.23-1.92,2.06-1.92s1.53.64,2.12,1.92c.55,1.23.82,2.76.82,4.59Z"/>
        <path class="cls-69" d="M643.87,319.08c-1.28-.5-2.22-.46-2.81.13-.55.55-.57,1.46-.07,2.74.46,1.28,1.32,2.58,2.6,3.91,1.33,1.23,2.63,2.1,3.91,2.6,1.24.46,2.15.41,2.74-.14.55-.6.59-1.51.14-2.74-.5-1.37-1.4-2.67-2.67-3.91-1.23-1.32-2.51-2.19-3.84-2.6ZM627.98,313.53c-1.83,0-3.36.3-4.6.89-1.28.55-1.91,1.26-1.91,2.13,0,.82.64,1.5,1.91,2.05,1.23.55,2.77.82,4.6.82s3.33-.28,4.66-.82c1.23-.55,1.85-1.23,1.85-2.05,0-.87-.62-1.58-1.85-2.13-1.33-.59-2.88-.89-4.66-.89ZM611.74,319.15c-1.28.55-2.56,1.46-3.83,2.74-1.28,1.23-2.17,2.49-2.67,3.77-.5,1.37-.44,2.33.21,2.88.54.55,1.48.55,2.81,0,1.28-.41,2.58-1.28,3.9-2.61,1.23-1.23,2.1-2.53,2.6-3.9.46-1.23.41-2.1-.13-2.6-.59-.6-1.55-.69-2.88-.28ZM628.04,328.95c-3.43,0-6.35,1.21-8.77,3.63-2.42,2.42-3.63,5.34-3.63,8.76s1.21,6.33,3.63,8.7c2.42,2.46,5.34,3.7,8.77,3.7s6.35-1.23,8.77-3.7c2.42-2.37,3.63-5.27,3.63-8.7s-1.21-6.35-3.63-8.76c-2.42-2.42-5.34-3.63-8.77-3.63ZM621.47,366.89c0,.82.64,1.51,1.91,2.06,1.23.55,2.77.82,4.6.82s3.33-.27,4.66-.82c1.23-.55,1.85-1.23,1.85-2.06s-.62-1.53-1.85-2.12c-1.33-.6-2.88-.89-4.66-.89s-3.36.3-4.6.89c-1.28.59-1.91,1.3-1.91,2.12ZM614.82,361.14c-.5-1.28-1.39-2.58-2.67-3.9-1.28-1.28-2.56-2.15-3.84-2.6-1.37-.41-2.32-.34-2.87.2-.6.55-.65,1.44-.14,2.67.46,1.32,1.33,2.62,2.6,3.9,1.28,1.28,2.6,2.17,3.97,2.67,1.23.46,2.12.41,2.67-.13.6-.55.69-1.48.27-2.81ZM656.27,341.62c0-1.83-.27-3.36-.82-4.59-.6-1.28-1.3-1.92-2.12-1.92s-1.51.64-2.06,1.92c-.59,1.23-.89,2.76-.89,4.59s.29,3.31.89,4.59c.55,1.23,1.23,1.84,2.06,1.84s1.52-.61,2.12-1.84c.55-1.28.82-2.81.82-4.59ZM640.99,361.27c-.55,1.28-.52,2.24.07,2.88.59.55,1.53.55,2.81,0,1.32-.41,2.61-1.25,3.84-2.53,1.28-1.23,2.17-2.53,2.67-3.9.45-1.24.41-2.17-.14-2.81-.59-.55-1.5-.57-2.74-.07-1.37.46-2.69,1.33-3.97,2.61-1.28,1.28-2.12,2.55-2.53,3.83ZM657.56,341.34c0,8.18-2.88,15.12-8.63,20.82-5.8,5.85-12.76,8.77-20.89,8.77s-15.09-2.92-20.89-8.77c-5.76-5.71-8.64-12.65-8.64-20.82s2.88-15.09,8.64-20.89c5.8-5.76,12.76-8.63,20.89-8.63s15.09,2.88,20.89,8.63c5.75,5.8,8.63,12.76,8.63,20.89ZM605.85,341.62c0-1.83-.27-3.36-.82-4.59-.59-1.28-1.3-1.92-2.12-1.92s-1.51.64-2.06,1.92c-.55,1.23-.82,2.76-.82,4.59s.27,3.31.82,4.59c.55,1.23,1.23,1.84,2.06,1.84s1.53-.61,2.12-1.84c.55-1.28.82-2.81.82-4.59Z"/>
        <g>
          <path class="cls-59" d="M641.06,341.64c0,7.27-5.89,13.16-13.16,13.16s-13.16-5.89-13.16-13.16,5.89-13.16,13.16-13.16,13.16,5.89,13.16,13.16Z"/>
          <path class="cls-66" d="M627.9,355.24c-7.5,0-13.6-6.1-13.6-13.6s6.1-13.6,13.6-13.6,13.6,6.1,13.6,13.6-6.1,13.6-13.6,13.6ZM627.9,328.92c-7.01,0-12.72,5.7-12.72,12.72s5.7,12.72,12.72,12.72,12.72-5.71,12.72-12.72-5.71-12.72-12.72-12.72Z"/>
        </g>
        <path class="cls-49" d="M624.14,337.78c1.05-1.05,2.33-1.57,3.84-1.57s2.76.52,3.76,1.57c1.14,1.05,1.71,2.33,1.71,3.83s-.57,2.79-1.71,3.84c-1.01,1.1-2.26,1.64-3.76,1.64s-2.79-.55-3.84-1.64c-1.05-1.05-1.58-2.33-1.58-3.84s.52-2.78,1.58-3.83Z"/>
        <path class="cls-58" d="M659.14,341.34c0,8.59-3.04,15.91-9.11,21.99-6.07,6.07-13.4,9.11-21.99,9.11s-15.92-3.04-21.99-9.11c-6.07-6.08-9.11-13.4-9.11-21.99s3.04-15.89,9.11-21.91c6.07-6.07,13.4-9.11,21.99-9.11s15.91,3.04,21.99,9.11c6.07,6.03,9.11,13.33,9.11,21.91ZM657.56,341.34c0-8.13-2.88-15.09-8.63-20.89-5.8-5.76-12.76-8.63-20.89-8.63s-15.09,2.88-20.89,8.63c-5.76,5.8-8.64,12.76-8.64,20.89s2.88,15.12,8.64,20.82c5.8,5.85,12.76,8.77,20.89,8.77s15.09-2.92,20.89-8.77c5.75-5.71,8.63-12.65,8.63-20.82Z"/>
        <path class="cls-52" d="M659.14,341.34c0-8.58-3.04-15.89-9.11-21.91-6.07-6.07-13.4-9.11-21.99-9.11s-15.92,3.04-21.99,9.11c-6.07,6.03-9.11,13.33-9.11,21.91s3.04,15.91,9.11,21.99c6.07,6.07,13.4,9.11,21.99,9.11s15.91-3.04,21.99-9.11c6.07-6.08,9.11-13.4,9.11-21.99ZM658.66,371.83c-8.49,8.45-18.7,12.67-30.62,12.67s-22.1-4.23-30.55-12.67c-8.45-8.4-12.67-18.56-12.67-30.48s4.23-22.1,12.67-30.55c8.45-8.45,18.63-12.67,30.55-12.67s22.13,4.22,30.62,12.67c8.44,8.45,12.64,18.63,12.64,30.55s-4.21,22.08-12.64,30.48Z"/>
        <path class="cls-66" d="M628.04,385.14c-12.04,0-22.47-4.32-31-12.86-8.53-8.48-12.86-18.9-12.86-30.94s4.33-22.47,12.86-31c8.53-8.53,18.96-12.86,31-12.86s22.49,4.32,31.07,12.86c8.52,8.54,12.83,18.96,12.83,31s-4.31,22.45-12.83,30.94c-8.58,8.53-19.03,12.86-31.07,12.86ZM628.04,298.76c-11.68,0-21.81,4.2-30.1,12.48-8.28,8.28-12.48,18.41-12.48,30.09s4.2,21.79,12.48,30.03c8.29,8.28,18.41,12.48,30.1,12.48s21.84-4.2,30.17-12.48c8.26-8.24,12.45-18.34,12.45-30.03s-4.19-21.81-12.46-30.09c-8.32-8.28-18.47-12.48-30.16-12.48ZM628.04,373.08c-8.72,0-16.27-3.13-22.44-9.3-6.17-6.17-9.3-13.72-9.3-22.44s3.13-16.25,9.3-22.37c6.17-6.17,13.72-9.3,22.44-9.3s16.27,3.12,22.44,9.3c6.17,6.12,9.29,13.65,9.29,22.37s-3.12,16.27-9.29,22.44c-6.17,6.17-13.72,9.3-22.44,9.3ZM628.04,310.96c-8.37,0-15.61,3-21.53,8.92-5.92,5.88-8.92,13.1-8.92,21.46s3,15.62,8.92,21.54c5.92,5.92,13.16,8.92,21.53,8.92s15.61-3.01,21.53-8.92c5.92-5.92,8.92-13.17,8.92-21.54s-3.01-15.59-8.92-21.46c-5.92-5.92-13.16-8.93-21.53-8.93ZM628.04,371.58c-8.27,0-15.45-3.01-21.35-8.96-5.85-5.8-8.82-12.96-8.82-21.28s2.96-15.44,8.82-21.34c5.9-5.85,13.08-8.82,21.35-8.82s15.45,2.96,21.34,8.82c5.85,5.9,8.82,13.08,8.82,21.34s-2.97,15.47-8.82,21.28c-5.89,5.94-13.07,8.95-21.34,8.95ZM628.04,312.46c-7.91,0-14.8,2.84-20.44,8.45-5.6,5.65-8.44,12.52-8.44,20.44s2.84,14.81,8.44,20.37c5.65,5.69,12.53,8.58,20.44,8.58s14.79-2.89,20.44-8.58c5.6-5.56,8.44-12.41,8.44-20.37s-2.84-14.79-8.44-20.44c-5.64-5.6-12.52-8.44-20.44-8.44Z"/>
        <path class="cls-87" d="M629.74,331.17c1.01.82,1.16,2.31.34,3.31-.82,1.01-2.31,1.16-3.32.34-1-.82-1.15-2.31-.33-3.31.82-1.01,2.3-1.16,3.31-.34Z"/>
        <path class="cls-87" d="M629.74,348.33c1.01.82,1.16,2.31.33,3.31-.82,1.01-2.31,1.16-3.31.34-1.01-.82-1.16-2.31-.34-3.31.82-1.01,2.3-1.16,3.31-.34Z"/>
        <path class="cls-87" d="M638.41,342.87c-.82,1.01-2.31,1.16-3.31.34-1.01-.82-1.16-2.31-.34-3.32.82-1.01,2.31-1.16,3.31-.33,1,.82,1.16,2.31.34,3.31Z"/>
        <path class="cls-87" d="M621.25,342.87c-.82,1.01-2.31,1.16-3.31.34-1.01-.82-1.16-2.31-.33-3.31.82-1.01,2.31-1.16,3.31-.34,1.01.82,1.16,2.31.33,3.31Z"/>
        <path class="cls-87" d="M520.23,319.15c1.32-.41,2.28-.32,2.88.28.55.5.59,1.37.14,2.6-.5,1.37-1.37,2.67-2.6,3.9-1.32,1.32-2.63,2.19-3.9,2.61-1.33.55-2.26.55-2.81,0-.64-.55-.71-1.51-.21-2.88.5-1.28,1.39-2.53,2.67-3.77,1.28-1.28,2.56-2.19,3.84-2.74ZM536.46,313.53c1.78,0,3.33.3,4.66.89,1.23.55,1.85,1.26,1.85,2.13,0,.82-.62,1.5-1.85,2.05-1.33.55-2.88.82-4.66.82s-3.36-.28-4.59-.82c-1.28-.55-1.91-1.23-1.91-2.05,0-.87.64-1.58,1.91-2.13,1.24-.59,2.77-.89,4.59-.89ZM552.35,319.08c1.32.41,2.6,1.27,3.83,2.6,1.28,1.24,2.17,2.54,2.67,3.91.45,1.23.41,2.15-.14,2.74-.59.55-1.51.59-2.74.14-1.28-.51-2.58-1.37-3.9-2.6-1.28-1.32-2.15-2.63-2.61-3.91-.5-1.28-.48-2.19.07-2.74.59-.59,1.53-.64,2.81-.13ZM549.47,361.27c.42-1.28,1.26-2.56,2.53-3.83,1.28-1.28,2.6-2.15,3.97-2.61,1.23-.5,2.15-.48,2.74.07.55.64.59,1.57.14,2.81-.5,1.37-1.39,2.67-2.67,3.9-1.23,1.28-2.51,2.12-3.83,2.53-1.28.55-2.22.55-2.81,0-.59-.64-.62-1.6-.07-2.88ZM564.75,341.62c0,1.78-.27,3.31-.82,4.59-.6,1.23-1.3,1.84-2.13,1.84s-1.51-.61-2.06-1.84c-.59-1.28-.89-2.81-.89-4.59s.29-3.36.89-4.59c.55-1.28,1.23-1.92,2.06-1.92s1.53.64,2.13,1.92c.55,1.23.82,2.76.82,4.59ZM523.31,361.14c.41,1.33.32,2.26-.28,2.81-.55.55-1.44.59-2.67.13-1.37-.5-2.7-1.39-3.98-2.67-1.28-1.28-2.14-2.58-2.6-3.9-.51-1.24-.45-2.13.14-2.67.55-.55,1.5-.62,2.87-.2,1.28.46,2.56,1.32,3.84,2.6,1.28,1.33,2.17,2.63,2.67,3.9ZM529.95,366.89c0-.82.64-1.53,1.91-2.12,1.24-.6,2.77-.89,4.59-.89s3.33.3,4.66.89c1.23.59,1.85,1.3,1.85,2.12s-.62,1.51-1.85,2.06c-1.33.55-2.88.82-4.66.82s-3.36-.27-4.59-.82c-1.28-.55-1.91-1.23-1.91-2.06ZM514.33,341.62c0,1.78-.27,3.31-.82,4.59-.59,1.23-1.3,1.84-2.12,1.84s-1.51-.61-2.06-1.84c-.55-1.28-.82-2.81-.82-4.59s.27-3.36.82-4.59c.55-1.28,1.23-1.92,2.06-1.92s1.53.64,2.12,1.92c.55,1.23.82,2.76.82,4.59Z"/>
        <path class="cls-68" d="M552.35,319.08c-1.28-.5-2.22-.46-2.81.13-.55.55-.57,1.46-.07,2.74.46,1.28,1.33,2.58,2.61,3.91,1.32,1.23,2.63,2.1,3.9,2.6,1.23.46,2.15.41,2.74-.14.55-.6.59-1.51.14-2.74-.5-1.37-1.39-2.67-2.67-3.91-1.23-1.32-2.51-2.19-3.83-2.6ZM536.46,313.53c-1.83,0-3.36.3-4.59.89-1.28.55-1.91,1.26-1.91,2.13,0,.82.64,1.5,1.91,2.05,1.24.55,2.77.82,4.59.82s3.33-.28,4.66-.82c1.23-.55,1.85-1.23,1.85-2.05,0-.87-.62-1.58-1.85-2.13-1.33-.59-2.88-.89-4.66-.89ZM520.23,319.15c-1.28.55-2.56,1.46-3.84,2.74-1.28,1.23-2.17,2.49-2.67,3.77-.5,1.37-.43,2.33.21,2.88.55.55,1.48.55,2.81,0,1.27-.41,2.58-1.28,3.9-2.61,1.23-1.23,2.1-2.53,2.6-3.9.46-1.23.41-2.1-.14-2.6-.59-.6-1.55-.69-2.88-.28ZM536.53,328.95c-3.42,0-6.34,1.21-8.77,3.63-2.42,2.42-3.63,5.34-3.63,8.76s1.21,6.33,3.63,8.7c2.42,2.46,5.34,3.7,8.77,3.7s6.35-1.23,8.77-3.7c2.42-2.37,3.63-5.27,3.63-8.7s-1.21-6.35-3.63-8.76c-2.42-2.42-5.34-3.63-8.77-3.63ZM529.95,366.89c0,.82.64,1.51,1.91,2.06,1.24.55,2.77.82,4.59.82s3.33-.27,4.66-.82c1.23-.55,1.85-1.23,1.85-2.06s-.62-1.53-1.85-2.12c-1.33-.6-2.88-.89-4.66-.89s-3.36.3-4.59.89c-1.28.59-1.91,1.3-1.91,2.12ZM523.31,361.14c-.5-1.28-1.39-2.58-2.67-3.9-1.28-1.28-2.56-2.15-3.84-2.6-1.37-.41-2.33-.34-2.87.2-.59.55-.64,1.44-.14,2.67.46,1.32,1.32,2.62,2.6,3.9,1.28,1.28,2.61,2.17,3.98,2.67,1.23.46,2.12.41,2.67-.13.6-.55.69-1.48.28-2.81ZM564.75,341.62c0-1.83-.27-3.36-.82-4.59-.6-1.28-1.3-1.92-2.13-1.92s-1.51.64-2.06,1.92c-.59,1.23-.89,2.76-.89,4.59s.29,3.31.89,4.59c.55,1.23,1.23,1.84,2.06,1.84s1.53-.61,2.13-1.84c.55-1.28.82-2.81.82-4.59ZM549.47,361.27c-.55,1.28-.52,2.24.07,2.88.59.55,1.53.55,2.81,0,1.32-.41,2.6-1.25,3.83-2.53,1.28-1.23,2.17-2.53,2.67-3.9.45-1.24.41-2.17-.14-2.81-.59-.55-1.51-.57-2.74-.07-1.37.46-2.69,1.33-3.97,2.61-1.28,1.28-2.12,2.55-2.53,3.83ZM566.05,341.34c0,8.18-2.88,15.12-8.63,20.82-5.8,5.85-12.76,8.77-20.89,8.77s-15.09-2.92-20.89-8.77c-5.76-5.71-8.63-12.65-8.63-20.82s2.88-15.09,8.63-20.89c5.8-5.76,12.76-8.63,20.89-8.63s15.1,2.88,20.89,8.63c5.75,5.8,8.63,12.76,8.63,20.89ZM514.33,341.62c0-1.83-.27-3.36-.82-4.59-.59-1.28-1.3-1.92-2.12-1.92s-1.51.64-2.06,1.92c-.55,1.23-.82,2.76-.82,4.59s.27,3.31.82,4.59c.55,1.23,1.23,1.84,2.06,1.84s1.53-.61,2.12-1.84c.55-1.28.82-2.81.82-4.59Z"/>
        <g>
          <path class="cls-59" d="M549.66,341.29c0,7.27-5.89,13.16-13.16,13.16s-13.16-5.89-13.16-13.16,5.89-13.16,13.16-13.16,13.16,5.89,13.16,13.16Z"/>
          <path class="cls-66" d="M536.5,354.89c-7.5,0-13.6-6.1-13.6-13.6s6.1-13.6,13.6-13.6,13.6,6.1,13.6,13.6-6.1,13.6-13.6,13.6ZM536.5,328.57c-7.01,0-12.72,5.71-12.72,12.72s5.7,12.72,12.72,12.72,12.72-5.71,12.72-12.72-5.71-12.72-12.72-12.72Z"/>
        </g>
        <path class="cls-50" d="M532.62,337.78c1.05-1.05,2.33-1.57,3.84-1.57s2.76.52,3.77,1.57c1.14,1.05,1.71,2.33,1.71,3.83s-.57,2.79-1.71,3.84c-1,1.1-2.26,1.64-3.77,1.64s-2.79-.55-3.84-1.64c-1.05-1.05-1.57-2.33-1.57-3.84s.52-2.78,1.57-3.83Z"/>
        <path class="cls-58" d="M567.63,341.34c0,8.59-3.04,15.91-9.11,21.99-6.07,6.07-13.4,9.11-21.99,9.11s-15.92-3.04-21.98-9.11c-6.08-6.08-9.11-13.4-9.11-21.99s3.04-15.89,9.11-21.91c6.07-6.07,13.4-9.11,21.98-9.11s15.92,3.04,21.99,9.11c6.08,6.03,9.11,13.33,9.11,21.91ZM566.05,341.34c0-8.13-2.88-15.09-8.63-20.89-5.8-5.76-12.76-8.63-20.89-8.63s-15.09,2.88-20.89,8.63c-5.76,5.8-8.63,12.76-8.63,20.89s2.88,15.12,8.63,20.82c5.8,5.85,12.76,8.77,20.89,8.77s15.1-2.92,20.89-8.77c5.75-5.71,8.63-12.65,8.63-20.82Z"/>
        <path class="cls-53" d="M567.63,341.34c0-8.58-3.04-15.89-9.11-21.91-6.07-6.07-13.4-9.11-21.99-9.11s-15.92,3.04-21.98,9.11c-6.08,6.03-9.11,13.33-9.11,21.91s3.04,15.91,9.11,21.99c6.07,6.07,13.4,9.11,21.98,9.11s15.92-3.04,21.99-9.11c6.08-6.08,9.11-13.4,9.11-21.99ZM567.15,371.83c-8.49,8.45-18.7,12.67-30.62,12.67s-22.1-4.23-30.55-12.67c-8.45-8.4-12.67-18.56-12.67-30.48s4.22-22.1,12.67-30.55c8.45-8.45,18.63-12.67,30.55-12.67s22.13,4.22,30.62,12.67c8.4,8.45,12.6,18.63,12.6,30.55s-4.2,22.08-12.6,30.48Z"/>
        <path class="cls-66" d="M536.53,385.14c-12.03,0-22.47-4.32-31-12.86-8.53-8.48-12.86-18.9-12.86-30.94s4.32-22.47,12.86-31c8.53-8.53,18.97-12.86,31-12.86s22.5,4.32,31.07,12.86c8.49,8.54,12.79,18.96,12.79,31s-4.31,22.45-12.79,30.94c-8.58,8.53-19.04,12.86-31.07,12.86ZM536.53,298.76c-11.68,0-21.81,4.2-30.09,12.48-8.28,8.28-12.48,18.41-12.48,30.09s4.2,21.79,12.48,30.03c8.29,8.28,18.41,12.48,30.09,12.48s21.84-4.2,30.17-12.48c8.23-8.24,12.41-18.34,12.41-30.03s-4.18-21.81-12.41-30.09c-8.33-8.28-18.47-12.48-30.17-12.48ZM536.53,373.08c-8.72,0-16.27-3.13-22.44-9.3-6.17-6.17-9.3-13.72-9.3-22.44s3.13-16.25,9.3-22.37c6.17-6.17,13.72-9.3,22.44-9.3s16.27,3.12,22.44,9.3c6.17,6.12,9.29,13.65,9.29,22.37s-3.13,16.27-9.29,22.44c-6.17,6.17-13.72,9.3-22.44,9.3ZM536.53,310.96c-8.37,0-15.61,3-21.53,8.92-5.92,5.88-8.92,13.1-8.92,21.46s3,15.62,8.92,21.54c5.92,5.92,13.16,8.92,21.53,8.92s15.62-3.01,21.54-8.92c5.92-5.92,8.92-13.17,8.92-21.54s-3-15.59-8.92-21.46c-5.92-5.92-13.16-8.93-21.54-8.93ZM536.53,371.58c-8.26,0-15.45-3.01-21.35-8.96-5.85-5.8-8.81-12.96-8.81-21.28s2.96-15.44,8.81-21.34c5.9-5.85,13.08-8.82,21.35-8.82s15.45,2.96,21.34,8.82c5.85,5.9,8.82,13.08,8.82,21.34s-2.97,15.47-8.82,21.28c-5.89,5.94-13.07,8.95-21.34,8.95ZM536.53,312.46c-7.91,0-14.79,2.84-20.44,8.45-5.6,5.65-8.44,12.52-8.44,20.44s2.84,14.81,8.44,20.37c5.65,5.69,12.52,8.58,20.44,8.58s14.79-2.89,20.44-8.58c5.6-5.56,8.44-12.41,8.44-20.37s-2.84-14.79-8.44-20.44c-5.64-5.6-12.52-8.44-20.44-8.44Z"/>
        <path class="cls-87" d="M538.22,331.17c1.01.82,1.16,2.31.34,3.31-.82,1.01-2.31,1.16-3.32.34-1-.82-1.16-2.31-.33-3.31.82-1.01,2.3-1.16,3.31-.34Z"/>
        <path class="cls-87" d="M538.23,348.33c1.01.82,1.16,2.31.34,3.31-.82,1.01-2.31,1.16-3.31.34-1.01-.82-1.16-2.31-.34-3.31.82-1.01,2.3-1.16,3.31-.34Z"/>
        <path class="cls-87" d="M546.89,342.87c-.82,1.01-2.31,1.16-3.31.34-1.01-.82-1.16-2.31-.34-3.32.82-1.01,2.3-1.16,3.32-.33,1.01.82,1.16,2.31.34,3.31Z"/>
        <path class="cls-87" d="M529.73,342.87c-.82,1.01-2.31,1.16-3.31.34-1.01-.82-1.16-2.31-.34-3.31.82-1.01,2.31-1.16,3.31-.34,1.01.82,1.16,2.31.34,3.31Z"/>
        <path class="cls-87" d="M141.16,208.25l-13.43-13.02c.05,2.84-.07,5.71-.34,8.64l11.23,10.82h-.07v3.9l-11.58-11.23c-.27,2.33-.62,4.66-1.03,6.99h-4.18v-4.11h-1.64v-8.01h-1.31v-11.37h1.31v-8.7h1.64v-4.38h4.18c.87,4.47,1.41,8.95,1.64,13.42l13.56,13.15v3.91Z"/>
        <g>
          <path class="cls-65" d="M285.07,313.69c-1.75,1.75-2.63,3.84-2.63,6.28v.05c0,2.44.88,4.52,2.63,6.23,1.72,1.75,3.8,2.63,6.24,2.63h33.29c2.44,0,4.53-.88,6.29-2.63,1.72-1.71,2.57-3.79,2.57-6.23v-.05c0-2.44-.86-4.53-2.57-6.28-1.75-1.72-3.85-2.57-6.29-2.57h-33.29c-2.44,0-4.52.86-6.24,2.57Z"/>
          <path class="cls-66" d="M324.6,329.92h-33.29c-2.72,0-5.07-.99-6.98-2.94-1.94-1.9-2.93-4.24-2.93-6.96s.99-5.12,2.94-7.07c1.91-1.91,4.26-2.88,6.97-2.88h33.29c2.71,0,5.07.97,7.02,2.88,1.92,1.96,2.89,4.32,2.89,7.03s-.97,5.11-2.88,7.02c-1.95,1.94-4.31,2.93-7.03,2.93ZM291.31,312.16c-2.17,0-3.97.74-5.5,2.27-1.56,1.56-2.32,3.37-2.32,5.54s.76,4.01,2.32,5.53c1.54,1.57,3.34,2.32,5.5,2.32h33.29c2.17,0,3.99-.76,5.55-2.32,1.53-1.52,2.27-3.32,2.27-5.49s-.74-4.03-2.28-5.59c-1.55-1.52-3.36-2.26-5.54-2.26h-33.29Z"/>
        </g>
        <g>
          <rect class="cls-14" x="325.92" y="78.23" width="414.72" height="209.91"/>
          <path class="cls-66" d="M740.65,289.77h-414.72c-.35,0-.64-.73-.64-1.64V78.23c0-.91.29-1.64.64-1.64h414.72c.35,0,.64.73.64,1.64v209.91c0,.91-.29,1.64-.64,1.64ZM326.57,286.5h413.44V79.85h-413.44v206.65Z"/>
        </g>
        <rect class="cls-80" x="333.77" y="87.23" width="399.42" height="190.62"/>
        <path class="cls-56" d="M340.22,93.93v177.21s127.58-151.37,371.32-177.21c32.1,0-371.32,0-371.32,0Z"/>
        <g>
          <path class="cls-64" d="M153.35,177.98c2.65-4.29,9.77-7.62,21.37-10,10.45-2.15,22.88-3.25,37.26-3.29,14.07-.04,26.74.92,38.02,2.88,12.06,2.06,19.86,4.84,23.43,8.36l.54,61.24-71.03.14-48.16,26.03h-23.7l.07-15.14,22.19-70.21Z"/>
          <path class="cls-66" d="M154.79,263.96h-23.7c-.17,0-.34-.07-.45-.19-.12-.12-.19-.28-.19-.45l.07-15.14c0-.06.01-.13.03-.19l22.19-70.21c.02-.05.04-.1.07-.14,2.77-4.49,9.9-7.86,21.79-10.29,10.45-2.14,23.03-3.25,37.39-3.3h.96c13.66,0,26.16.97,37.17,2.88,12.3,2.1,20.07,4.89,23.77,8.53.12.12.19.28.19.45l.54,61.24c0,.17-.06.33-.18.46-.12.12-.29.19-.45.19l-70.87.14-48.01,25.95c-.09.05-.2.08-.31.08ZM131.73,262.68h22.89l48.01-25.95c.09-.05.2-.08.3-.08l70.39-.14-.53-60.32c-3.55-3.32-11.25-6.01-22.9-8-10.94-1.9-23.37-2.87-36.95-2.87h-.96c-14.27.04-26.77,1.15-37.13,3.27-11.31,2.32-18.34,5.56-20.91,9.64l-22.14,70.04-.07,14.4Z"/>
        </g>
        <g>
          <rect class="cls-66" x="203.3" y="164.65" width="4.9" height="72.32"/>
          <path class="cls-66" d="M208.2,237.61h-4.9c-.36,0-.64-.29-.64-.64v-72.32c0-.36.29-.64.64-.64h4.9c.35,0,.64.28.64.64v72.32c0,.36-.29.64-.64.64ZM203.94,236.33h3.62v-71.04h-3.62v71.04Z"/>
        </g>
        <g>
          <path class="cls-87" d="M217.45,222.83l3.35-14.92-17.01-2.84-9.28,28.83-38.14,22.65-19.59-16.47h-2.83l-2.83,7.72v14.92l23.19.52,48.97-26.25h70.35l-.26-61c-5.88-3.98-14.04-6.55-24.48-7.72l-.26,54.57h-31.18Z"/>
          <path class="cls-66" d="M154.31,263.88h-.01l-23.19-.52c-.35,0-.63-.29-.63-.64v-14.92c0-.08.01-.15.04-.22l2.83-7.72c.09-.25.33-.42.6-.42h2.83c.15,0,.3.05.41.15l19.24,16.18,37.54-22.3,9.2-28.59c.1-.3.4-.49.71-.44l17.01,2.83c.17.03.33.13.43.27.1.15.13.33.09.5l-3.18,14.14h29.74l.26-53.92c0-.18.08-.35.22-.48.14-.12.32-.17.49-.16,10.5,1.17,18.83,3.81,24.77,7.83.17.12.28.32.28.53l.26,60.82c.02.06.03.12.03.18,0,.35-.29.64-.65.64h-70.21l-48.82,26.18c-.09.05-.2.08-.3.08ZM131.77,262.1l22.4.5,48.81-26.18c.09-.05.2-.07.31-.07h69.7l-.26-60.02c-5.61-3.71-13.41-6.18-23.2-7.35l-.26,53.85c0,.35-.29.64-.64.64h-31.18c-.19,0-.38-.09-.5-.24-.12-.15-.17-.35-.13-.54l3.21-14.27-15.8-2.63-9.11,28.3c-.05.15-.15.27-.28.35l-38.14,22.65c-.24.14-.53.11-.74-.06l-19.41-16.32h-2.15l-2.64,7.2v14.18Z"/>
        </g>
        <path class="cls-33" d="M251.88,182.12c10.41-1.58,15.62-3.48,15.62-5.71s-5.21-4.15-15.62-5.77c-10.41-1.58-22.99-2.37-37.73-2.37s-27.32.79-37.72,2.37c-10.41,1.61-15.62,3.53-15.62,5.77s5.2,4.14,15.62,5.71c10.41,1.61,22.99,2.42,37.72,2.42s27.31-.81,37.73-2.42Z"/>
        <path class="cls-66" d="M274.35,240.67h-70.76c-.36,0-.64-.29-.64-.64s.29-.64.64-.64h70.76c.35,0,.64.28.64.64s-.29.64-.64.64Z"/>
        <path class="cls-66" d="M153.59,267.95c-.23,0-.44-.12-.56-.34-.17-.31-.05-.7.25-.87l49.89-27.28c.31-.17.7-.06.87.26.17.31.06.7-.25.87l-49.89,27.28c-.09.06-.2.08-.31.08Z"/>
        <path class="cls-66" d="M153.59,267.95h-22.52c-.35,0-.64-.29-.64-.64s.28-.64.64-.64h22.52c.36,0,.64.29.64.64s-.29.64-.64.64Z"/>
        <g>
          <rect class="cls-66" x="189.41" y="248.83" width="13.92" height="4.12"/>
          <path class="cls-66" d="M203.33,253.59h-13.92c-.36,0-.64-.29-.64-.64v-4.12c0-.35.29-.64.64-.64h13.92c.36,0,.64.29.64.64v4.12c0,.36-.28.64-.64.64ZM190.06,252.31h12.63v-2.84h-12.63v2.84Z"/>
        </g>
        <g>
          <path class="cls-79" d="M447.88,139.24l43.84-2.98-3.2,28.38s-6.96-2.65-21.09-4.64c-1.21,3.42-2.76,7.51-4.75,12.04,15.79-.44,24.07-1.66,24.07-1.66,0,0-3.2,13.36-30.04,14.36-2.43,4.75-5.19,9.72-8.39,14.36-9.61-4.97-12.04-11.37-12.04-11.37,2.1-10.93,6.52-22.86,9.39-29.82l-6.85-.22c2.65-12.15,9.06-18.44,9.06-18.44Z"/>
          <path class="cls-79" d="M518.55,147.85l11.38-8.83s10.27,4.2,10.27,21.21c0,31.25-31.25,38.65-31.25,38.65-17.23-4.75-22.31-16.67-22.31-16.67,0-35.67,20.98-39.54,20.98-39.54,2.65,2.98,6.85,4.53,10.93,5.19ZM521.09,156.46c-5.86,6.41-12.26,16.24-12.26,28.82,5.41,0,17.34-10.93,12.26-28.82Z"/>
          <path class="cls-79" d="M570.89,147.85l11.38-8.83s10.27,4.2,10.27,21.21c0,31.25-31.25,38.65-31.25,38.65-17.23-4.75-22.31-16.67-22.31-16.67,0-35.67,20.98-39.54,20.98-39.54,2.65,2.98,6.85,4.53,10.93,5.19ZM573.43,156.46c-5.85,6.41-12.26,16.24-12.26,28.82,5.41,0,17.34-10.93,12.26-28.82Z"/>
          <path class="cls-79" d="M599.49,141.89s9.83-6.07,32.47-6.07c0,0,14.36,9.72,17.78,25.62,0,0-5.19,36.22-50.58,32.14l-5.08-8.95c0-4.75,5.86-18.66,9.28-26.39-5.96.88-9.72,1.77-9.72,1.77,0,0,1.77-10.6,5.85-18.11ZM621.58,157.02c-1.99,8.83-5.97,21.31-7.29,25.62,16.34-8.83,18.89-25.07,18.89-25.07-3.98-.44-7.84-.55-11.6-.55Z"/>
          <path class="cls-79" d="M437.61,208.41s5.22-3.23,17.24-3.23c0,0,7.62,5.16,9.44,13.6,0,0-2.75,19.23-26.85,17.06l-2.7-4.75c0-2.52,3.11-9.91,4.93-14.02-3.17.47-5.16.94-5.16.94,0,0,.94-5.63,3.11-9.62ZM449.33,216.44c-1.06,4.69-3.16,11.32-3.87,13.6,8.68-4.69,10.03-13.31,10.03-13.31-2.11-.23-4.16-.29-6.16-.29Z"/>
          <path class="cls-79" d="M464.62,218.02c0-8.15,8.91-13.31,23.75-13.31l3.93,13.14s-6.27-1.47-18.47-.53c0,1.82,1.17,4.28,15.01,3.46,0,0-.58,5.57-11.43,5.57-1.17,0-2.23-.06-3.16-.18l-.65,3.11s.18.29,2.82.29c7.56,0,14.66-2.76,14.66-2.76-.59,4.63-6.63,10.91-16.6,10.91-6.63,0-11.26-4.63-11.96-7.1,0,0,1.23-3.81,4.57-7.62,0,0-2.46-2.29-2.46-4.98Z"/>
          <path class="cls-79" d="M494.1,215.91c0-3.75-.35-6.1-.35-6.1,0,0,4.87-3.28,16.71-4.16,0,0-4.11,8.21-8.21,21.35,5.92,0,8.27-2,8.27-2l-2.35,12.02c-7.74-1.46-18.41-1.82-18.41-1.82,0,0,4.34-17.71,4.34-19.29Z"/>
          <path class="cls-79" d="M525.52,207.82c-5.92,21.99-5.92,31.14-5.92,31.14,0,0-4.46-1.35-8.5-5.22.76-15.07,3.52-27.73,3.52-27.73,0,0,4.04,1.12,10.91,1.82Z"/>
          <path class="cls-79" d="M525.57,209.63s5.52-3.34,13.84-4.04c0,0-5.86,13.01-2.23,24.45,5.34-9.15,6.69-21.34,6.69-21.34,0,0,6.51,1.29,9.03,6.1,0,0-1.17,19.82-22.34,22.87-7.68-12.61-4.99-28.03-4.99-28.03Z"/>
          <path class="cls-79" d="M552.94,218.02c0-8.15,8.91-13.31,23.75-13.31l3.93,13.14s-6.27-1.47-18.47-.53c0,1.82,1.17,4.28,15.01,3.46,0,0-.58,5.57-11.43,5.57-1.17,0-2.23-.06-3.17-.18l-.65,3.11s.18.29,2.82.29c7.56,0,14.66-2.76,14.66-2.76-.59,4.63-6.63,10.91-16.6,10.91-6.63,0-11.26-4.63-11.96-7.1,0,0,1.23-3.81,4.57-7.62,0,0-2.46-2.29-2.46-4.98Z"/>
          <path class="cls-79" d="M581.24,210.63s5.74-4.81,17.88-4.81c0,0,8.39,2,11.97,11.9-1.12,6.74-7.16,9.68-12.26,10.61,4.81,3.05,9.91,4.28,9.91,4.28,0,0-2.4,4.05-8.5,5.81-5.1-2-7.5-6.39-9.26-9.27l-3.93,9.38s-5.75-2.75-7.68-6.8l3.99-13.6-2.11-7.5ZM595.14,217.79l-3.05,7.5c9.09-.12,10.14-6.74,10.14-6.74,0,0-2.4-1-7.1-.76Z"/>
          <path class="cls-79" d="M612.83,238.84s3.58-6.04,3.58-12.78c0-8.5-8.09-9.68-8.09-9.68,7.16-6.51,9.15-11.14,9.15-11.14,0,0,6.33,7.04,5.1,19.99,8.03-7.39,6.57-20.58,6.57-20.58l9.79,7.68c0,3.4-.93,10.14-10.2,13.6l-1.24,10.67-14.66,2.23Z"/>
        </g>
        <g>
          <path class="cls-81" d="M476.52,182.88c0,23.61-19.11,42.76-42.73,42.76s-42.76-19.14-42.76-42.76,19.15-42.76,42.76-42.76,42.73,19.14,42.73,42.76Z"/>
          <path class="cls-79" d="M433.79,227.73c-24.73,0-44.85-20.12-44.85-44.85s20.12-44.85,44.85-44.85,44.82,20.12,44.82,44.85-20.11,44.85-44.82,44.85ZM433.79,142.22c-22.42,0-40.66,18.24-40.66,40.66s18.24,40.66,40.66,40.66,40.63-18.24,40.63-40.66-18.23-40.66-40.63-40.66Z"/>
        </g>
        <g>
          <path class="cls-77" d="M444.63,136.91l43.84-2.98-3.2,28.38s-6.96-2.65-21.1-4.64c-1.21,3.42-2.76,7.51-4.74,12.04,15.79-.44,24.07-1.66,24.07-1.66,0,0-3.2,13.36-30.04,14.36-2.43,4.75-5.19,9.72-8.39,14.36-9.61-4.97-12.04-11.37-12.04-11.37,2.1-10.93,6.52-22.86,9.39-29.82l-6.85-.22c2.65-12.15,9.06-18.44,9.06-18.44Z"/>
          <path class="cls-77" d="M515.3,145.53l11.38-8.84s10.27,4.2,10.27,21.21c0,31.25-31.25,38.65-31.25,38.65-17.23-4.75-22.31-16.67-22.31-16.67,0-35.67,20.98-39.54,20.98-39.54,2.65,2.98,6.85,4.53,10.93,5.19ZM517.84,154.14c-5.85,6.41-12.26,16.23-12.26,28.82,5.41,0,17.34-10.93,12.26-28.82Z"/>
          <path class="cls-77" d="M567.64,145.53l11.38-8.84s10.27,4.2,10.27,21.21c0,31.25-31.25,38.65-31.25,38.65-17.23-4.75-22.31-16.67-22.31-16.67,0-35.67,20.98-39.54,20.98-39.54,2.65,2.98,6.85,4.53,10.93,5.19ZM570.18,154.14c-5.85,6.41-12.26,16.23-12.26,28.82,5.41,0,17.34-10.93,12.26-28.82Z"/>
          <path class="cls-77" d="M596.24,139.56s9.83-6.08,32.47-6.08c0,0,14.36,9.72,17.78,25.62,0,0-5.19,36.22-50.58,32.14l-5.08-8.95c0-4.75,5.85-18.66,9.28-26.39-5.96.88-9.72,1.76-9.72,1.76,0,0,1.77-10.6,5.85-18.11ZM618.33,154.69c-1.99,8.84-5.96,21.31-7.29,25.62,16.34-8.84,18.89-25.07,18.89-25.07-3.98-.44-7.84-.55-11.6-.55Z"/>
          <path class="cls-77" d="M434.36,206.08s5.22-3.23,17.24-3.23c0,0,7.62,5.16,9.44,13.6,0,0-2.75,19.23-26.85,17.06l-2.7-4.75c0-2.52,3.11-9.91,4.93-14.01-3.17.47-5.16.94-5.16.94,0,0,.94-5.63,3.11-9.62ZM446.08,214.11c-1.06,4.69-3.16,11.32-3.87,13.6,8.68-4.69,10.03-13.31,10.03-13.31-2.11-.23-4.17-.29-6.16-.29Z"/>
          <path class="cls-77" d="M461.37,215.7c0-8.15,8.91-13.31,23.75-13.31l3.93,13.14s-6.27-1.47-18.47-.53c0,1.82,1.17,4.28,15.01,3.46,0,0-.58,5.57-11.43,5.57-1.17,0-2.23-.06-3.16-.17l-.64,3.11s.17.29,2.81.29c7.57,0,14.66-2.75,14.66-2.75-.59,4.63-6.63,10.9-16.6,10.9-6.63,0-11.26-4.63-11.96-7.1,0,0,1.23-3.81,4.58-7.62,0,0-2.46-2.29-2.46-4.98Z"/>
          <path class="cls-77" d="M490.85,213.59c0-3.75-.35-6.1-.35-6.1,0,0,4.87-3.28,16.71-4.16,0,0-4.1,8.21-8.21,21.35,5.92,0,8.27-2,8.27-2l-2.35,12.02c-7.74-1.47-18.41-1.82-18.41-1.82,0,0,4.34-17.71,4.34-19.29Z"/>
          <path class="cls-77" d="M522.27,205.49c-5.92,21.99-5.92,31.14-5.92,31.14,0,0-4.45-1.35-8.5-5.22.76-15.07,3.52-27.73,3.52-27.73,0,0,4.04,1.12,10.91,1.82Z"/>
          <path class="cls-77" d="M522.32,207.31s5.51-3.34,13.84-4.04c0,0-5.86,13.01-2.23,24.45,5.34-9.15,6.69-21.34,6.69-21.34,0,0,6.51,1.29,9.03,6.1,0,0-1.17,19.82-22.34,22.87-7.68-12.61-4.99-28.03-4.99-28.03Z"/>
          <path class="cls-77" d="M549.68,215.7c0-8.15,8.91-13.31,23.75-13.31l3.93,13.14s-6.27-1.47-18.47-.53c0,1.82,1.17,4.28,15.01,3.46,0,0-.58,5.57-11.43,5.57-1.17,0-2.23-.06-3.16-.17l-.65,3.11s.18.29,2.82.29c7.56,0,14.66-2.75,14.66-2.75-.59,4.63-6.63,10.9-16.6,10.9-6.63,0-11.26-4.63-11.96-7.1,0,0,1.23-3.81,4.58-7.62,0,0-2.46-2.29-2.46-4.98Z"/>
          <path class="cls-77" d="M578,208.31s5.74-4.81,17.88-4.81c0,0,8.39,1.99,11.97,11.9-1.12,6.75-7.16,9.68-12.26,10.61,4.81,3.05,9.91,4.28,9.91,4.28,0,0-2.41,4.04-8.5,5.8-5.1-1.99-7.51-6.39-9.26-9.26l-3.93,9.38s-5.75-2.76-7.68-6.8l3.99-13.6-2.11-7.51ZM591.89,215.46l-3.05,7.51c9.09-.12,10.14-6.74,10.14-6.74,0,0-2.4-1-7.1-.76Z"/>
          <path class="cls-77" d="M609.58,236.51s3.58-6.04,3.58-12.78c0-8.5-8.09-9.68-8.09-9.68,7.15-6.51,9.15-11.14,9.15-11.14,0,0,6.33,7.04,5.1,19.99,8.03-7.39,6.57-20.58,6.57-20.58l9.79,7.68c0,3.4-.94,10.14-10.2,13.6l-1.23,10.67-14.66,2.23Z"/>
        </g>
        <g>
          <path class="cls-76" d="M410.6,120.98c9.72,13.42,7,31.96,7,31.96,0,0-18.47-3.2-28.19-16.62-9.72-13.42-7-31.96-7-31.96,0,0,18.47,3.2,28.19,16.62Z"/>
          <path class="cls-79" d="M419.36,155.38l-2.12-.36c-.79-.14-19.43-3.51-29.53-17.45-10.1-13.94-7.49-32.7-7.37-33.49l.31-2.13,2.11.37c.79.14,19.43,3.51,29.53,17.45,10.1,13.94,7.49,32.7,7.37,33.49l-.31,2.13ZM384.28,106.93c-.33,5.2-.33,18.29,6.83,28.17,7.18,9.91,19.59,13.98,24.63,15.28.33-5.2.32-18.29-6.83-28.17-7.17-9.91-19.59-13.98-24.63-15.28Z"/>
        </g>
        <g>
          <path class="cls-59" d="M219.23,350.08c-4.96,5.31-13.29,5.59-18.6.62-5.31-4.96-5.59-13.29-.62-18.6,4.96-5.31,13.29-5.59,18.6-.62,5.31,4.97,5.59,13.29.62,18.6Z"/>
          <path class="cls-66" d="M200.33,351.02c-5.48-5.12-5.76-13.75-.64-19.22,5.12-5.48,13.75-5.77,19.22-.65,5.48,5.12,5.76,13.74.64,19.22-5.12,5.48-13.74,5.76-19.22.64ZM218.3,331.8c-5.12-4.79-13.19-4.52-17.98.6-4.79,5.12-4.52,13.18.6,17.97,5.12,4.79,13.19,4.52,17.98-.6,4.79-5.12,4.52-13.19-.6-17.98Z"/>
        </g>
        <path class="cls-51" d="M209.51,335.7c1.49-.05,2.78.44,3.88,1.47,1.1,1.02,1.66,2.26,1.67,3.72.11,1.55-.34,2.87-1.37,3.97-1.03,1.1-2.32,1.65-3.87,1.63-1.48.11-2.77-.34-3.87-1.37-1.1-1.03-1.66-2.3-1.68-3.82-.05-1.49.44-2.78,1.47-3.88,1.03-1.1,2.29-1.68,3.77-1.73Z"/>
        <path class="cls-87" d="M218.11,334.7c.18,1.29-.73,2.48-2.02,2.65-1.29.18-2.47-.73-2.65-2.02-.17-1.28.73-2.47,2.02-2.65,1.29-.18,2.47.73,2.65,2.02Z"/>
        <path class="cls-87" d="M206.39,347.23c.18,1.29-.73,2.48-2.02,2.65-1.29.18-2.47-.73-2.65-2.02-.17-1.29.73-2.47,2.02-2.65,1.28-.18,2.47.73,2.65,2.02Z"/>
        <path class="cls-87" d="M216.45,349.16c-1.29.17-2.48-.73-2.65-2.02-.18-1.29.73-2.48,2.01-2.65,1.29-.18,2.48.73,2.65,2.02.17,1.28-.73,2.47-2.02,2.65Z"/>
        <path class="cls-87" d="M203.92,337.44c-1.29.17-2.47-.73-2.65-2.01-.18-1.29.73-2.48,2.02-2.65,1.29-.18,2.48.73,2.65,2.01s-.73,2.47-2.02,2.65Z"/>
      </g>
    </g>
  </g>
</svg>