<?xml version="1.0" encoding="UTF-8"?>
<svg id="Layer_2" data-name="Layer 2" xmlns="http://www.w3.org/2000/svg" viewBox="0 0 530.71 530.71">
  <defs>
    <style>
      .cls-1 {
        isolation: isolate;
      }

      .cls-2 {
        fill: #5d7280;
      }

      .cls-2, .cls-3, .cls-4, .cls-5, .cls-6, .cls-7, .cls-8, .cls-9, .cls-10, .cls-11 {
        stroke-width: 0px;
      }

      .cls-3 {
        fill: #2c353b;
      }

      .cls-4 {
        fill: #888abf;
      }

      .cls-5 {
        fill: #3b4951;
      }

      .cls-6 {
        fill: #419ae8;
      }

      .cls-7 {
        fill: #20f;
      }

      .cls-8 {
        fill: #1300b8;
      }

      .cls-9 {
        fill: #d7daff;
      }

      .cls-10 {
        fill: #aeb2f4;
      }

      .cls-11 {
        fill: #fff;
      }
    </style>
  </defs>
  <g id="_ëÎÓÈ_1" data-name="ëÎÓÈ 1">
    <g>
      <path class="cls-11" d="M479.83.5c27.71,0,50.38,22.67,50.38,50.38v428.95c0,27.71-22.67,50.38-50.38,50.38H50.88c-27.71,0-50.38-22.67-50.38-50.38V50.88C.5,23.17,23.17.5,50.88.5h428.95M479.83,0H50.88C22.83,0,0,22.83,0,50.88v428.95c0,28.06,22.83,50.88,50.88,50.88h428.95c28.06,0,50.88-22.83,50.88-50.88V50.88c0-28.06-22.83-50.88-50.88-50.88h0Z"/>
      <g>
        <polygon class="cls-9" points="280.25 231.93 177.02 291.53 111.87 253.91 215.1 194.31 280.25 231.93"/>
        <g class="cls-1">
          <polygon class="cls-10" points="124.62 198.77 177.94 243.14 177.92 251.65 124.59 207.29 124.62 198.77"/>
          <polygon class="cls-9" points="124.62 198.77 199.89 155.03 253.22 199.39 177.94 243.14 124.62 198.77"/>
          <polygon class="cls-4" points="177.94 243.14 253.22 199.39 253.19 207.91 177.92 251.65 177.94 243.14"/>
        </g>
        <polygon class="cls-9" points="383.48 194.88 280.26 254.48 111.87 157.26 215.1 97.66 383.48 194.88"/>
        <g>
          <polygon class="cls-10" points="280.25 220.94 194.65 171.51 194.65 195.08 280.25 244.5 280.25 220.94"/>
          <polygon class="cls-4" points="280.25 220.94 365.86 171.51 365.86 195.08 280.25 244.5 280.25 220.94"/>
          <g>
            <polygon class="cls-9" points="365.86 171.53 280.25 122.11 194.65 171.53 280.25 220.95 365.86 171.53"/>
            <polygon class="cls-10" points="290.98 206.95 255.13 186.25 305.74 157.03 341.6 177.73 290.98 206.95"/>
            <polygon class="cls-10" points="242.82 179.15 249.15 182.8 299.77 153.57 293.44 149.92 242.82 179.15"/>
          </g>
        </g>
        <g>
          <polygon class="cls-4" points="383.48 343.23 280.25 402.83 280.25 254.29 383.48 194.68 383.48 343.23"/>
          <g>
            <polygon class="cls-10" points="363.6 217.84 300.14 254.48 300.14 250.41 363.6 213.77 363.6 217.84"/>
            <polygon class="cls-10" points="363.6 225.87 300.14 262.51 300.14 258.44 363.6 221.8 363.6 225.87"/>
            <polygon class="cls-10" points="363.6 233.91 300.14 270.55 300.14 266.47 363.6 229.84 363.6 233.91"/>
          </g>
        </g>
        <g>
          <polygon class="cls-2" points="191.03 100.52 149.34 76.45 142.57 80.36 184.27 104.43 191.03 100.52"/>
          <polygon class="cls-3" points="191.03 157.72 191.03 100.5 184.27 104.41 184.27 161.62 191.03 157.72"/>
          <polygon class="cls-3" points="176.86 165.72 176.86 149.66 170.1 153.57 170.1 169.62 176.86 165.72"/>
          <g>
            <g>
              <polygon class="cls-5" points="184.27 161.62 142.57 137.55 142.57 80.34 184.27 104.41 184.27 161.62"/>
              <polygon class="cls-6" points="180.04 130.57 146.8 111.38 146.8 89.55 180.04 108.73 180.04 130.57"/>
              <g>
                <g>
                  <polygon class="cls-2" points="153.88 128.98 147.32 125.2 147.32 117.63 153.88 121.41 153.88 128.98"/>
                  <polygon class="cls-2" points="162.6 134.02 156.04 130.23 156.04 122.66 162.6 126.45 162.6 134.02"/>
                  <polygon class="cls-2" points="171.32 139.05 164.76 135.26 164.76 127.7 171.32 131.48 171.32 139.05"/>
                  <polygon class="cls-2" points="180.04 144.08 173.48 140.3 173.48 132.73 180.04 136.51 180.04 144.08"/>
                </g>
                <g>
                  <polygon class="cls-2" points="153.88 138.65 147.32 134.86 147.32 127.29 153.88 131.08 153.88 138.65"/>
                  <polygon class="cls-2" points="162.6 143.68 156.04 139.9 156.04 132.33 162.6 136.11 162.6 143.68"/>
                  <polygon class="cls-2" points="171.32 148.71 164.76 144.93 164.76 137.36 171.32 141.15 171.32 148.71"/>
                  <polygon class="cls-2" points="180.04 153.75 173.48 149.96 173.48 142.39 180.04 146.18 180.04 153.75"/>
                </g>
              </g>
            </g>
            <polygon class="cls-5" points="170.14 153.46 156.7 145.7 156.7 161.76 170.14 169.52 170.14 153.46"/>
          </g>
        </g>
        <g>
          <g>
            <polygon class="cls-10" points="280.25 402.83 177.02 343.23 177.02 194.68 280.25 254.29 280.25 402.83"/>
            <polygon class="cls-7" points="268.37 258.01 188.9 212.13 188.9 262.84 268.37 308.72 268.37 258.01"/>
            <g>
              <polygon class="cls-8" points="268.37 271.1 188.9 225.22 188.9 221.09 268.37 266.97 268.37 271.1"/>
              <polygon class="cls-8" points="268.37 288.87 188.9 242.99 188.9 238.87 268.37 284.74 268.37 288.87"/>
            </g>
            <g>
              <polygon class="cls-4" points="268.37 336.42 188.9 290.54 188.9 285.78 268.37 331.65 268.37 336.42"/>
              <polygon class="cls-4" points="254.05 328.15 203.22 298.8 203.22 306.79 254.05 336.14 254.05 328.15"/>
            </g>
            <g>
              <polygon class="cls-4" points="268.37 366.31 188.9 320.44 188.9 315.68 268.37 361.55 268.37 366.31"/>
              <polygon class="cls-4" points="254.05 358.05 203.22 328.7 203.22 336.69 254.05 366.04 254.05 358.05"/>
            </g>
            <polygon class="cls-10" points="111.87 254.05 177.02 291.66 177.02 343.23 111.87 305.62 111.87 254.05"/>
            <polygon class="cls-10" points="111.87 167.66 177.02 205.27 177.02 194.68 111.87 157.07 111.87 167.66"/>
          </g>
          <polygon class="cls-4" points="166.8 311.67 122.09 285.85 122.09 277.87 166.8 303.68 166.8 311.67"/>
        </g>
        <g class="cls-1">
          <polygon class="cls-10" points="343.57 321.75 343.56 327.44 294.88 319.6 294.89 313.91 343.57 321.75"/>
          <polygon class="cls-4" points="343.57 321.75 418.84 278.01 418.83 283.69 343.56 327.44 343.57 321.75"/>
          <polygon class="cls-9" points="294.89 313.91 370.16 270.17 418.84 278.01 343.57 321.75 294.89 313.91"/>
        </g>
      </g>
    </g>
  </g>
</svg>