<?xml version="1.0" encoding="UTF-8"?>
<svg id="Layer_2" data-name="Layer 2" xmlns="http://www.w3.org/2000/svg" viewBox="0 0 530.71 530.71">
  <defs>
    <style>
      .cls-1 {
        fill: #3b4951;
      }

      .cls-1, .cls-2, .cls-3, .cls-4 {
        stroke-width: 0px;
      }

      .cls-2 {
        fill: #419ae8;
      }

      .cls-3 {
        fill: #69c3fa;
      }

      .cls-4 {
        fill: #fff;
      }
    </style>
  </defs>
  <g id="_ëÎÓÈ_1" data-name="ëÎÓÈ 1">
    <g>
      <path class="cls-4" d="M479.83.5c27.71,0,50.38,22.67,50.38,50.38v428.95c0,27.71-22.67,50.38-50.38,50.38H50.88c-27.71,0-50.38-22.67-50.38-50.38V50.88C.5,23.17,23.17.5,50.88.5h428.95M479.83,0H50.88C22.83,0,0,22.83,0,50.88v428.95c0,28.06,22.83,50.88,50.88,50.88h428.95c28.06,0,50.88-22.83,50.88-50.88V50.88c0-28.06-22.83-50.88-50.88-50.88h0Z"/>
      <g>
        <g>
          <path class="cls-2" d="M376.09,303.15v13.06l-107.74,62.19c-51.2,29.54-128.61,32.73-172.96,7.17-20.07-11.63-29.94-27.16-29.94-43.4v-13.06c0,2.15.16,4.3.56,6.37,2.23,13.86,11.95,26.91,29.38,36.95,44.35,25.64,121.76,22.45,172.96-7.17l96.43-55.59,11.31-6.53Z"/>
          <path class="cls-3" d="M376.09,303.15l-11.31,6.53-96.43,55.59c-51.2,29.62-128.61,32.81-172.96,7.17-17.44-10.04-27.16-23.09-29.38-36.95-.4-2.07-.56-4.22-.56-6.37,0-19.67,14.34-40.38,42.37-56.54l107.66-62.19,160.62,92.77Z"/>
        </g>
        <path class="cls-2" d="M465.09,254.42c.24,3.03.24,6.05,0,9.08-1.91,22.54-17.76,44.75-47.54,62.03-63.62,36.71-166.83,36.71-230.45,0-29.78-17.28-45.63-39.5-47.54-62.03-.24-3.02-.24-6.05,0-9.08.08-4.46.4-8.92.87-13.3,3.98,20.46,19.59,40.22,46.67,55.98,63.62,36.71,166.83,36.71,230.45,0,27.08-15.77,42.69-35.52,46.67-55.98.48,4.38.8,8.84.87,13.3Z"/>
        <path class="cls-3" d="M464.22,241.13c-3.98,20.46-19.59,40.22-46.67,55.98-63.62,36.71-166.83,36.71-230.45,0-27.08-15.77-42.69-35.52-46.67-55.98,8.84-81.54,77.96-145.01,161.89-145.01s153.05,63.47,161.89,145.01Z"/>
        <path class="cls-2" d="M327.24,100.68c.04.46.04.93,0,1.39-.02.3-.07.62-.13.93-.61,3.13-3,6.16-7.14,8.57-9.74,5.62-25.53,5.62-35.27,0-4.14-2.41-6.53-5.44-7.14-8.57-.06-.31-.11-.62-.13-.93-.04-.46-.04-.93,0-1.39.35-13.44,11.37-24.23,24.91-24.23s24.56,10.79,24.91,24.23Z"/>
        <g>
          <path class="cls-1" d="M187.1,245.03c9.95,5.73,20.94,10.59,32.57,14.57l-3.5,17.52c-10.35-3.66-20.07-8.12-29.07-13.3-12.26-7.09-22.14-15.05-29.62-23.49l3.82-14.73c6.93,6.93,15.61,13.46,25.8,19.43Z"/>
          <path class="cls-1" d="M226.44,225.28l-3.5,17.68c-12.9-4.14-24.93-9.39-35.83-15.69-8.45-4.94-15.77-10.27-22.06-15.85l3.98-15.45c5.34,4.38,11.39,8.6,18.08,12.5,11.86,6.85,25.16,12.5,39.33,16.81Z"/>
          <g>
            <path class="cls-1" d="M219.67,259.6l-3.5,17.52c-10.35-3.66-20.07-8.12-29.07-13.3-12.26-7.09-22.14-15.05-29.62-23.49l3.82-14.73c6.93,6.93,15.61,13.46,25.8,19.43,9.95,5.73,20.94,10.59,32.57,14.57Z"/>
            <path class="cls-1" d="M226.44,225.28l-3.5,17.68c-12.9-4.14-24.93-9.39-35.83-15.69-8.45-4.94-15.77-10.27-22.06-15.85l3.98-15.45c5.34,4.38,11.39,8.6,18.08,12.5,11.86,6.85,25.16,12.5,39.33,16.81Z"/>
          </g>
        </g>
      </g>
    </g>
  </g>
</svg>