<?xml version="1.0" encoding="UTF-8"?>
<svg id="Layer_2" data-name="Layer 2" xmlns="http://www.w3.org/2000/svg" viewBox="0 0 530.71 530.71">
  <defs>
    <style>
      .cls-1 {
        opacity: .3;
      }

      .cls-1, .cls-2, .cls-3, .cls-4, .cls-5, .cls-6, .cls-7 {
        stroke-width: 0px;
      }

      .cls-1, .cls-6 {
        fill: #fff;
      }

      .cls-2 {
        fill: #888abf;
      }

      .cls-3 {
        fill: #3b4951;
      }

      .cls-4 {
        fill: #d7daff;
      }

      .cls-5 {
        fill: #aeb2f4;
      }

      .cls-7 {
        fill: #ed484f;
      }
    </style>
  </defs>
  <g id="_ëÎÓÈ_1" data-name="ëÎÓÈ 1">
    <g>
      <path class="cls-6" d="M479.83.5c27.71,0,50.38,22.67,50.38,50.38v428.95c0,27.71-22.67,50.38-50.38,50.38H50.88c-27.71,0-50.38-22.67-50.38-50.38V50.88C.5,23.17,23.17.5,50.88.5h428.95M479.83,0H50.88C22.83,0,0,22.83,0,50.88v428.95c0,28.06,22.83,50.88,50.88,50.88h428.95c28.06,0,50.88-22.83,50.88-50.88V50.88c0-28.06-22.83-50.88-50.88-50.88h0Z"/>
      <g>
        <g>
          <polygon class="cls-5" points="332.03 378.8 59.17 221.26 59.17 211.39 332.03 368.93 332.03 378.8"/>
          <polygon class="cls-2" points="471.54 298.26 332.03 378.8 332.03 368.93 471.54 288.39 471.54 298.26"/>
          <g>
            <polygon class="cls-4" points="471.53 288.42 332.05 368.95 59.19 211.41 198.67 130.88 471.53 288.42"/>
            <g>
              <polygon class="cls-7" points="302.9 191.06 94.44 191.06 128.41 171.45 268.93 171.45 302.9 191.06"/>
              <polygon class="cls-7" points="383.26 237.46 104.29 237.45 59.19 211.41 73.73 203.02 323.62 203.02 383.26 237.46"/>
            </g>
            <path class="cls-5" d="M230.13,215.98l-23.61,13.63c-5.66,3.27-14.93,3.27-20.59,0l-56.1-32.39c-5.66-3.27-5.66-8.62,0-11.89l23.61-13.63c5.73-3.31,14.93-3.27,20.59,0l56.1,32.39c5.66,3.27,5.73,8.58,0,11.89Z"/>
            <g>
              <polygon class="cls-3" points="405.28 311.77 312.56 258.24 318.26 254.95 410.98 308.48 405.28 311.77"/>
              <polygon class="cls-3" points="392.44 319.18 299.73 265.65 305.42 262.36 398.14 315.89 392.44 319.18"/>
              <polygon class="cls-3" points="379.61 326.59 286.89 273.06 292.59 269.77 385.3 323.3 379.61 326.59"/>
              <polygon class="cls-3" points="366.77 334 302.68 297 308.38 293.71 372.47 330.71 366.77 334"/>
            </g>
            <g>
              <polygon class="cls-3" points="402.24 277.68 433.29 295.6 439.23 292.17 408.19 274.25 402.24 277.68"/>
              <path class="cls-7" d="M396.97,271.2c-4.45,2.57-11.66,2.57-16.11,0-4.45-2.57-4.45-6.73,0-9.3,4.45-2.57,11.66-2.57,16.11,0,4.45,2.57,4.45,6.73,0,9.3Z"/>
            </g>
            <path class="cls-1" d="M222.93,199.94h-88.4s-4.7-2.71-4.7-2.71c-5.66-3.27-5.66-8.62,0-11.89l.58-.33h66.66s25.86,14.93,25.86,14.93Z"/>
          </g>
        </g>
        <g>
          <polygon class="cls-5" points="332.04 333.66 59.18 176.12 59.18 166.26 332.04 323.79 332.04 333.66"/>
          <polygon class="cls-2" points="471.54 253.12 332.04 333.66 332.04 323.79 471.54 243.25 471.54 253.12"/>
          <g>
            <polygon class="cls-4" points="471.54 243.28 332.05 323.81 59.19 166.28 198.67 85.75 471.54 243.28"/>
            <g>
              <polygon class="cls-7" points="302.9 145.92 94.45 145.92 128.42 126.31 268.93 126.31 302.9 145.92"/>
              <polygon class="cls-7" points="383.26 192.32 104.29 192.32 59.19 166.28 73.73 157.88 323.62 157.88 383.26 192.32"/>
            </g>
            <path class="cls-5" d="M230.13,170.85l-23.61,13.63c-5.66,3.27-14.93,3.27-20.59,0l-56.1-32.39c-5.66-3.27-5.66-8.62,0-11.89l23.61-13.63c5.73-3.31,14.93-3.27,20.59,0l56.1,32.39c5.66,3.27,5.73,8.58,0,11.89Z"/>
            <g>
              <polygon class="cls-3" points="405.28 266.63 312.56 213.11 318.26 209.82 410.98 263.34 405.28 266.63"/>
              <polygon class="cls-3" points="392.44 274.05 299.73 220.52 305.43 217.23 398.14 270.76 392.44 274.05"/>
              <polygon class="cls-3" points="379.61 281.46 286.89 227.93 292.59 224.64 385.31 278.17 379.61 281.46"/>
              <polygon class="cls-3" points="366.77 288.87 302.69 251.87 308.38 248.58 372.47 285.58 366.77 288.87"/>
            </g>
            <g>
              <polygon class="cls-3" points="402.25 232.54 433.29 250.46 439.23 247.03 408.19 229.11 402.25 232.54"/>
              <path class="cls-7" d="M396.98,226.07c-4.45,2.57-11.66,2.57-16.11,0-4.45-2.57-4.45-6.73,0-9.3,4.45-2.57,11.66-2.57,16.11,0,4.45,2.57,4.45,6.73,0,9.3Z"/>
            </g>
            <path class="cls-1" d="M222.93,154.8h-88.4s-4.7-2.71-4.7-2.71c-5.66-3.27-5.66-8.62,0-11.89l.58-.33h66.66l25.86,14.93Z"/>
          </g>
        </g>
      </g>
    </g>
  </g>
</svg>