<?xml version="1.0" encoding="UTF-8"?>
<svg id="Layer_2" data-name="Layer 2" xmlns="http://www.w3.org/2000/svg" viewBox="0 0 530.71 530.71">
  <defs>
    <style>
      .cls-1 {
        fill: #3b4951;
      }

      .cls-1, .cls-2, .cls-3, .cls-4, .cls-5, .cls-6, .cls-7, .cls-8 {
        stroke-width: 0px;
      }

      .cls-2 {
        fill: #3376bf;
      }

      .cls-3 {
        fill: #419ae8;
      }

      .cls-4 {
        fill: #20f;
      }

      .cls-5 {
        fill: #69c3fa;
      }

      .cls-6 {
        fill: #fff;
      }

      .cls-7 {
        fill: #ed484f;
      }

      .cls-8 {
        fill: #f6d13a;
      }
    </style>
  </defs>
  <g id="_ëÎÓÈ_1" data-name="ëÎÓÈ 1">
    <g>
      <path class="cls-6" d="M479.83.5c27.71,0,50.38,22.67,50.38,50.38v428.95c0,27.71-22.67,50.38-50.38,50.38H50.88c-27.71,0-50.38-22.67-50.38-50.38V50.88C.5,23.17,23.17.5,50.88.5h428.95M479.83,0H50.88C22.83,0,0,22.83,0,50.88v428.95c0,28.06,22.83,50.88,50.88,50.88h428.95c28.06,0,50.88-22.83,50.88-50.88V50.88c0-28.06-22.83-50.88-50.88-50.88h0Z"/>
      <g>
        <path class="cls-3" d="M356.89,138.53v202.22c0,15.88-10.52,31.75-31.49,43.9-42,24.24-110.08,24.24-152.08,0-20.97-12.15-31.49-28.03-31.49-43.9v-202.22h215.06Z"/>
        <g>
          <path class="cls-5" d="M325.4,182.45c-42,24.25-110.09,24.25-152.09,0-42-24.25-42-63.56,0-87.81,42-24.25,110.09-24.25,152.09,0,42,24.25,42,63.56,0,87.81Z"/>
          <ellipse class="cls-3" cx="249.36" cy="138.54" rx="95.92" ry="55.38"/>
        </g>
        <g>
          <path class="cls-2" d="M388.9,293.35c0,17.74-6.53,31.23-18.38,38.11-5.11,2.91-10.79,4.4-16.89,4.4-7.95,0-16.53-2.56-25.26-7.52-4.61-2.7-6.46-8.16-4.61-12.99.14-.5.43-1.06.71-1.56,2.98-5.11,9.44-6.88,14.55-3.9,8.37,4.83,15.97,5.96,20.86,3.12,4.97-2.84,7.74-10,7.74-19.66,0-1.21-.07-2.41-.14-3.69-1.63-23.91-18.88-52.65-39.1-64.29-4.61-2.62-6.39-8.09-4.61-12.91.14-.57.43-1.06.71-1.63,2.98-5.11,9.44-6.81,14.55-3.9,27.04,15.68,48.47,51.73,49.75,83.31.14,1.06.14,2.06.14,3.12Z"/>
          <path class="cls-5" d="M388.76,290.23c-.99,15.54-7.38,27.46-18.24,33.71-5.11,2.98-10.79,4.47-16.89,4.47-7.95,0-16.53-2.55-25.26-7.59-2.2-1.28-3.83-3.19-4.61-5.46.14-.5.43-1.06.71-1.56,2.98-5.11,9.44-6.88,14.55-3.9,8.37,4.83,15.97,5.96,20.86,3.12,4.97-2.84,7.74-10,7.74-19.66,0-1.21-.07-2.41-.14-3.69.07-1.21.14-2.48.14-3.76,0-24.55-17.95-55.71-39.24-67.98-2.2-1.28-3.83-3.26-4.61-5.46.14-.57.43-1.06.71-1.63,2.98-5.11,9.44-6.81,14.55-3.9,27.04,15.68,48.47,51.73,49.75,83.31Z"/>
        </g>
        <g>
          <g>
            <polygon class="cls-1" points="199.92 300.37 167.03 281.38 167.03 275.63 199.92 294.62 199.92 300.37"/>
            <polygon class="cls-1" points="199.92 309.25 167.03 290.26 167.03 284.51 199.92 303.5 199.92 309.25"/>
            <polygon class="cls-1" points="194.35 314.91 172.6 302.36 172.6 296.61 194.35 309.16 194.35 314.91"/>
          </g>
          <g>
            <path class="cls-8" d="M169.54,255.21c0,6.01-4.22,8.45-9.43,5.44-5.21-3.01-9.43-10.31-9.43-16.32s9.43-13.62,9.43-13.62c0,0,9.43,18.5,9.43,24.51Z"/>
            <path class="cls-7" d="M192.9,268.7c0,6.01-4.22,8.45-9.42,5.44-5.21-3.01-9.43-10.31-9.43-16.33s9.43-13.62,9.43-13.62c0,0,9.42,18.5,9.42,24.51Z"/>
            <path class="cls-4" d="M216.26,282.18c0,6.01-4.22,8.45-9.43,5.44-5.21-3.01-9.42-10.31-9.42-16.33s9.42-13.62,9.42-13.62c0,0,9.43,18.5,9.43,24.51Z"/>
          </g>
        </g>
      </g>
    </g>
  </g>
</svg>