<?xml version="1.0" encoding="UTF-8"?>
<svg id="Layer_2" data-name="Layer 2" xmlns="http://www.w3.org/2000/svg" viewBox="0 0 530.71 530.71">
  <defs>
    <style>
      .cls-1 {
        fill: #5d7280;
      }

      .cls-1, .cls-2, .cls-3, .cls-4, .cls-5, .cls-6, .cls-7 {
        stroke-width: 0px;
      }

      .cls-2 {
        fill: #2c353b;
      }

      .cls-3 {
        fill: #888abf;
      }

      .cls-4 {
        fill: #3b4951;
      }

      .cls-5 {
        fill: #d7daff;
      }

      .cls-6 {
        fill: #aeb2f4;
      }

      .cls-7 {
        fill: #fff;
      }
    </style>
  </defs>
  <g id="_ëÎÓÈ_1" data-name="ëÎÓÈ 1">
    <g>
      <g>
        <polygon class="cls-1" points="269.64 149.47 154.7 83.11 78.97 126.83 193.91 193.19 269.64 149.47"/>
        <g>
          <polygon class="cls-1" points="345.37 162.48 269.64 118.76 193.91 162.48 269.64 206.2 345.37 162.48"/>
          <polygon class="cls-4" points="326.47 162.48 269.64 129.67 212.81 162.48 269.64 195.29 326.47 162.48"/>
          <polygon class="cls-1" points="319.89 162.48 269.64 133.46 219.38 162.48 269.64 191.49 319.89 162.48"/>
        </g>
        <g>
          <g>
            <polygon class="cls-3" points="345.37 297.68 269.64 341.4 269.64 212.13 345.37 168.4 345.37 297.68"/>
            <polygon class="cls-2" points="345.37 162.47 269.64 206.2 269.64 212.13 345.37 168.4 345.37 162.47"/>
          </g>
          <polygon class="cls-6" points="345.37 183.44 269.64 227.17 269.64 223.15 345.37 179.43 345.37 183.44"/>
        </g>
        <g>
          <g>
            <g>
              <polygon class="cls-6" points="269.64 341.4 193.91 297.68 193.91 168.4 269.64 212.13 269.64 341.4"/>
              <polygon class="cls-4" points="269.64 206.2 193.91 162.47 193.91 168.4 269.64 212.13 269.64 206.2"/>
            </g>
            <polygon class="cls-3" points="269.64 233.14 193.91 189.41 193.91 186.24 269.64 229.96 269.64 233.14"/>
            <polygon class="cls-3" points="241.81 235.8 221.73 224.21 221.73 217.75 241.81 229.35 241.81 235.8"/>
            <g>
              <polygon class="cls-3" points="269.64 272 193.91 228.27 193.91 225.1 269.64 268.82 269.64 272"/>
              <polygon class="cls-3" points="241.81 269.7 221.73 258.11 221.73 251.65 241.81 263.25 241.81 269.7"/>
            </g>
            <g>
              <polygon class="cls-3" points="269.64 296 193.91 252.28 193.91 249.1 269.64 292.83 269.64 296"/>
              <polygon class="cls-3" points="241.81 293.71 221.73 282.12 221.73 275.66 241.81 287.25 241.81 293.71"/>
            </g>
            <g>
              <polygon class="cls-3" points="269.64 320.01 193.91 276.29 193.91 273.11 269.64 316.83 269.64 320.01"/>
              <polygon class="cls-3" points="241.81 317.72 221.73 306.13 221.73 299.67 241.81 311.26 241.81 317.72"/>
            </g>
          </g>
          <g>
            <g>
              <polygon class="cls-6" points="78.97 231.32 193.91 297.68 193.91 199.2 78.97 132.84 78.97 231.32"/>
              <polygon class="cls-4" points="193.91 193.27 78.97 126.91 78.97 132.84 193.91 199.2 193.91 193.27"/>
            </g>
            <polygon class="cls-3" points="120.25 255.15 117.63 253.64 117.63 155.16 120.25 156.68 120.25 255.15"/>
            <polygon class="cls-3" points="159.58 277.86 156.96 276.35 156.96 177.87 159.58 179.39 159.58 277.86"/>
          </g>
        </g>
        <g>
          <g>
            <polygon class="cls-5" points="205.49 114.87 164.22 138.69 134.85 121.73 176.12 97.91 205.49 114.87"/>
            <polygon class="cls-6" points="134.85 127.38 164.22 144.34 164.22 138.74 134.85 121.78 134.85 127.38"/>
          </g>
          <polygon class="cls-3" points="221.13 138.09 179.85 161.92 179.85 116.97 221.13 93.15 221.13 138.09"/>
          <polygon class="cls-5" points="221.12 93.16 179.85 116.99 164.22 107.96 205.49 84.14 221.12 93.16"/>
          <polygon class="cls-5" points="205.49 93.41 164.22 117.24 134.85 100.28 176.12 76.45 205.49 93.41"/>
          <g>
            <polygon class="cls-6" points="179.85 161.92 164.22 152.9 164.22 107.95 179.85 116.97 179.85 161.92"/>
            <polygon class="cls-6" points="134.85 105.93 164.22 122.89 164.22 117.28 134.85 100.32 134.85 105.93"/>
          </g>
        </g>
        <g>
          <polygon class="cls-2" points="277.05 166.53 277.05 147.54 273.98 149.31 273.98 168.3 277.05 166.53"/>
          <g>
            <polygon class="cls-4" points="294.36 161.13 241.85 130.81 241.85 92.83 294.36 123.14 294.36 161.13"/>
            <polygon class="cls-4" points="273.98 149.36 262.23 142.58 262.23 161.52 273.98 168.3 273.98 149.36"/>
            <polygon class="cls-6" points="288.68 151.03 247.53 127.27 247.53 102.93 288.68 126.68 288.68 151.03"/>
            <g>
              <polygon class="cls-4" points="256.89 123.14 252.33 120.5 252.33 115.23 256.89 117.87 256.89 123.14"/>
              <polygon class="cls-4" points="265.89 128.33 261.32 125.7 261.32 120.43 265.89 123.06 265.89 128.33"/>
              <polygon class="cls-4" points="274.89 133.53 270.32 130.89 270.32 125.62 274.89 128.26 274.89 133.53"/>
              <polygon class="cls-4" points="283.88 138.72 279.32 136.09 279.32 130.82 283.88 133.45 283.88 138.72"/>
            </g>
          </g>
          <polygon class="cls-1" points="297.43 121.35 244.92 91.03 241.85 92.8 294.36 123.12 297.43 121.35"/>
          <polygon class="cls-2" points="297.43 159.36 297.43 121.37 294.36 123.14 294.36 161.13 297.43 159.36"/>
        </g>
        <g>
          <g>
            <polygon class="cls-6" points="376.01 402.83 269.61 341.4 269.61 264.62 376.01 326.05 376.01 402.83"/>
            <polygon class="cls-3" points="300.07 358.99 296.45 356.89 296.45 280.11 300.07 282.2 300.07 358.99"/>
            <polygon class="cls-3" points="300.07 336.51 300.07 332.33 376.01 376.17 376.01 380.36 300.07 336.51"/>
            <path class="cls-3" d="M344.81,337.83l-13.54-7.82c-2.81-1.62-5.08-5.97-5.08-9.71h0c0-3.74,2.27-5.46,5.08-3.84l13.54,7.82c2.81,1.62,5.08,5.97,5.08,9.71h0c0,3.74-2.27,5.46-5.08,3.84Z"/>
          </g>
          <polygon class="cls-3" points="451.75 359.11 376.01 402.83 376.01 326.05 451.75 282.32 451.75 359.11"/>
          <polygon class="cls-5" points="451.75 282.31 376.02 326.03 269.61 264.6 345.34 220.88 451.75 282.31"/>
        </g>
      </g>
      <path class="cls-7" d="M479.83.5c27.71,0,50.38,22.67,50.38,50.38v428.95c0,27.71-22.67,50.38-50.38,50.38H50.88c-27.71,0-50.38-22.67-50.38-50.38V50.88C.5,23.17,23.17.5,50.88.5h428.95M479.83,0H50.88C22.83,0,0,22.83,0,50.88v428.95c0,28.06,22.83,50.88,50.88,50.88h428.95c28.06,0,50.88-22.83,50.88-50.88V50.88c0-28.06-22.83-50.88-50.88-50.88h0Z"/>
    </g>
  </g>
</svg>