<?xml version="1.0" encoding="UTF-8"?>
<svg id="Layer_2" data-name="Layer 2" xmlns="http://www.w3.org/2000/svg" viewBox="0 0 530.71 530.71">
  <defs>
    <style>
      .cls-1 {
        isolation: isolate;
      }

      .cls-2 {
        fill: #f3ae00;
      }

      .cls-2, .cls-3, .cls-4, .cls-5, .cls-6, .cls-7 {
        stroke-width: 0px;
      }

      .cls-3 {
        fill: #3b4951;
      }

      .cls-4 {
        fill: #e50000;
      }

      .cls-5 {
        fill: #b70000;
      }

      .cls-6 {
        fill: #fff;
      }

      .cls-7 {
        fill: #ed484f;
      }
    </style>
  </defs>
  <g id="_ëÎÓÈ_1" data-name="ëÎÓÈ 1">
    <g>
      <path class="cls-6" d="M479.83.5c27.71,0,50.38,22.67,50.38,50.38v428.95c0,27.71-22.67,50.38-50.38,50.38H50.88c-27.71,0-50.38-22.67-50.38-50.38V50.88C.5,23.17,23.17.5,50.88.5h428.95M479.83,0H50.88C22.83,0,0,22.83,0,50.88v428.95c0,28.06,22.83,50.88,50.88,50.88h428.95c28.06,0,50.88-22.83,50.88-50.88V50.88c0-28.06-22.83-50.88-50.88-50.88h0Z"/>
      <g>
        <g>
          <g class="cls-1">
            <path class="cls-7" d="M179.37,93.49l14.35-8.34c2.45-1.42,5.22-2.29,8.24-2.56l-14.35,8.34c-3.02.27-5.79,1.14-8.24,2.56Z"/>
            <polygon class="cls-7" points="321.99 259.95 336.34 251.62 338.71 394.48 324.37 402.82 321.99 259.95"/>
            <polygon class="cls-7" points="187.62 90.93 201.96 82.59 240.12 76.45 225.77 84.79 187.62 90.93"/>
            <polygon class="cls-7" points="225.77 84.79 240.12 76.45 305.53 114.22 291.19 122.55 225.77 84.79"/>
            <polygon class="cls-7" points="291.19 122.55 305.53 114.22 343.53 164.33 329.18 172.66 291.19 122.55"/>
            <polygon class="cls-7" points="342.83 195.9 357.18 187.56 389.02 264.88 374.67 273.22 342.83 195.9"/>
            <path class="cls-7" d="M329.18,172.66l14.35-8.34c5.58,6.96,10.24,14.94,13.64,23.23l-14.35,8.34c-3.4-8.3-8.07-16.28-13.64-23.23Z"/>
            <path class="cls-4" d="M339,282.6l-17.03-22.66,2.38,142.89-133.26-76.94,3.19-139.7-17.03,3.05-35.55-50.55,32.16-40.37c3.46-4.34,8.14-6.92,13.78-7.39l38.13-6.18,1.02.61,62.83,36.3,1.56.88,38,50.14c5.63,6.92,10.25,14.93,13.64,23.2l31.89,77.35-35.69,9.36Z"/>
          </g>
          <path class="cls-5" d="M289.6,121.66v.21c0,20.01-14.11,28.16-31.41,18.12-17.37-9.98-31.41-34.4-31.41-54.42v-.21l62.83,36.3Z"/>
          <polygon class="cls-4" points="226.78 85.36 241.12 77.03 303.95 113.33 289.6 121.66 226.78 85.36"/>
        </g>
        <g>
          <g>
            <polygon class="cls-2" points="225.73 161.23 229.1 171.07 236.65 176.69 231.19 179.69 232.47 189.11 225.73 181.11 218.98 181.31 220.27 173.38 214.81 164.08 222.35 167.18 225.73 161.23"/>
            <polygon class="cls-2" points="253.66 177.36 257.03 187.2 264.58 192.82 259.12 195.81 260.41 205.23 253.66 197.24 246.91 197.44 248.2 189.51 242.74 180.21 250.29 183.3 253.66 177.36"/>
            <polygon class="cls-2" points="281.59 193.48 284.97 203.33 292.51 208.95 287.05 211.94 288.34 221.36 281.59 213.37 274.85 213.57 276.14 205.64 270.68 196.34 278.22 199.43 281.59 193.48"/>
          </g>
          <g>
            <polygon class="cls-3" points="282.09 238.02 225.23 205.19 225.23 197.12 282.09 229.95 282.09 238.02"/>
            <polygon class="cls-3" points="282.09 253.9 225.23 221.06 225.23 212.99 282.09 245.83 282.09 253.9"/>
            <polygon class="cls-3" points="269.3 262.38 238.02 244.32 238.02 236.25 269.3 254.31 269.3 262.38"/>
          </g>
        </g>
      </g>
    </g>
  </g>
</svg>