<?xml version="1.0" encoding="UTF-8"?>
<svg id="Layer_2" data-name="Layer 2" xmlns="http://www.w3.org/2000/svg" viewBox="0 0 530.71 530.71">
  <defs>
    <style>
      .cls-1 {
        opacity: .4;
      }

      .cls-1, .cls-2, .cls-3, .cls-4, .cls-5, .cls-6, .cls-7, .cls-8, .cls-9, .cls-10 {
        stroke-width: 0px;
      }

      .cls-1, .cls-9 {
        fill: #fff;
      }

      .cls-11 {
        isolation: isolate;
      }

      .cls-2 {
        fill: #5d7280;
      }

      .cls-3 {
        fill: #2c353b;
      }

      .cls-4 {
        fill: #3b4951;
      }

      .cls-5 {
        fill: #20f;
      }

      .cls-6 {
        fill: #e50000;
      }

      .cls-7 {
        fill: #d7daff;
      }

      .cls-8 {
        fill: #b70000;
      }

      .cls-10 {
        fill: #ed484f;
      }
    </style>
  </defs>
  <g id="_ëÎÓÈ_1" data-name="ëÎÓÈ 1">
    <g>
      <path class="cls-9" d="M479.83.5c27.71,0,50.38,22.67,50.38,50.38v428.95c0,27.71-22.67,50.38-50.38,50.38H50.88c-27.71,0-50.38-22.67-50.38-50.38V50.88C.5,23.17,23.17.5,50.88.5h428.95M479.83,0H50.88C22.83,0,0,22.83,0,50.88v428.95c0,28.06,22.83,50.88,50.88,50.88h428.95c28.06,0,50.88-22.83,50.88-50.88V50.88c0-28.06-22.83-50.88-50.88-50.88h0Z"/>
      <g>
        <g>
          <g>
            <path class="cls-4" d="M331.68,285.95c-.52.55-1.22,1.07-2.03,1.54l-20.63,11.92c-4.15,2.38-10.42,2.64-14.01.58l-56.75-32.76c-.38-.23-.73-.46-1.02-.73.52-.55,1.22-1.07,2.03-1.54l20.66-11.93c4.12-2.38,10.39-2.64,13.98-.58l56.75,32.76c.38.23.73.46,1.02.73Z"/>
            <path class="cls-2" d="M333.1,282.9c0,1.02-.49,2.06-1.42,3.05-.52.55-1.22,1.07-2.03,1.54l-20.63,11.92c-4.15,2.38-10.42,2.64-14.01.58l-56.75-32.76c-.38-.23-.73-.46-1.02-.73-.93-.81-1.39-1.8-1.39-2.82,0-1.57,1.16-3.25,3.42-4.55l20.66-11.92c4.12-2.38,10.39-2.64,13.98-.58l56.75,32.76c1.63.96,2.44,2.21,2.44,3.51Z"/>
            <path class="cls-4" d="M333.1,282.9v5.83c0,1.6-1.19,3.28-3.45,4.58l-20.63,11.93c-4.15,2.38-10.42,2.64-14.01.58l-56.75-32.79c-1.62-.93-2.41-2.18-2.41-3.51v-5.83c0,1.02.46,2,1.39,2.82.29.26.64.49,1.02.73l56.75,32.76c3.6,2.06,9.86,1.8,14.01-.58l20.63-11.92c.81-.46,1.51-.99,2.03-1.54.93-.99,1.42-2.03,1.42-3.05Z"/>
          </g>
          <g>
            <polygon class="cls-2" points="366.78 171.64 201.91 76.45 197.56 78.97 362.43 174.15 366.78 171.64"/>
            <polygon class="cls-3" points="366.78 298.16 366.78 171.64 362.43 174.15 362.43 300.67 366.78 298.16"/>
            <polygon class="cls-3" points="307.73 285.88 307.73 264.05 303.37 266.57 303.37 288.4 307.73 285.88"/>
            <g>
              <polygon class="cls-4" points="362.43 300.67 197.56 205.48 197.56 78.96 362.43 174.15 362.43 300.67"/>
              <polygon class="cls-9" points="358.18 175.93 358.18 293.99 201.81 203.71 201.81 85.65 358.18 175.93"/>
              <polygon class="cls-4" points="303.37 266.58 256.62 239.58 256.62 261.41 303.37 288.4 303.37 266.58"/>
              <polygon class="cls-2" points="358.17 180.91 201.82 90.64 201.82 85.65 358.17 175.93 358.17 180.91"/>
              <g>
                <polygon class="cls-2" points="209.74 106.73 204.75 103.85 204.75 98.09 209.74 100.97 209.74 106.73"/>
                <polygon class="cls-2" points="209.74 118.25 204.75 115.37 204.75 109.61 209.74 112.49 209.74 118.25"/>
                <polygon class="cls-2" points="209.74 129.76 204.75 126.88 204.75 121.12 209.74 124 209.74 129.76"/>
                <polygon class="cls-2" points="209.74 141.28 204.75 138.4 204.75 132.64 209.74 135.52 209.74 141.28"/>
                <polygon class="cls-2" points="209.74 152.8 204.75 149.92 204.75 144.16 209.74 147.04 209.74 152.8"/>
                <polygon class="cls-2" points="209.74 164.31 204.75 161.44 204.75 155.68 209.74 158.56 209.74 164.31"/>
                <polygon class="cls-2" points="209.74 175.83 204.75 172.95 204.75 167.19 209.74 170.07 209.74 175.83"/>
                <polygon class="cls-2" points="209.74 187.35 204.75 184.47 204.75 178.71 209.74 181.59 209.74 187.35"/>
              </g>
              <polygon class="cls-7" points="305.11 243.95 218.94 194.2 218.94 106.28 305.11 156.03 305.11 243.95"/>
              <polygon class="cls-5" points="281.06 208.09 242.99 186.1 242.99 142.14 281.06 164.12 281.06 208.09"/>
              <polygon class="cls-2" points="330.73 278.14 358.17 293.98 358.17 180.91 330.73 165.06 330.73 278.14"/>
              <polygon class="cls-4" points="355.39 207.04 333.51 194.4 333.51 169.14 355.39 181.77 355.39 207.04"/>
              <polygon class="cls-10" points="355.39 238.23 333.51 225.6 333.51 200.33 355.39 212.96 355.39 238.23"/>
              <polygon class="cls-7" points="355.39 238.23 333.51 225.6 333.51 212.2 355.39 224.84 355.39 238.23"/>
              <polygon class="cls-2" points="296.52 224.56 319.47 237.81 319.47 208.28 296.52 195.03 296.52 224.56"/>
              <polygon class="cls-4" points="319.47 212.61 296.52 199.36 296.52 195.03 319.47 208.28 319.47 212.61"/>
              <g>
                <polygon class="cls-4" points="316.32 219.57 299.67 209.95 299.67 207.91 316.32 217.53 316.32 219.57"/>
                <polygon class="cls-4" points="316.32 222.65 299.67 213.03 299.67 210.98 316.32 220.6 316.32 222.65"/>
                <polygon class="cls-4" points="316.32 225.72 299.67 216.11 299.67 214.06 316.32 223.68 316.32 225.72"/>
                <polygon class="cls-4" points="311.23 225.86 299.67 219.18 299.67 217.14 311.23 223.81 311.23 225.86"/>
              </g>
              <g>
                <polygon class="cls-7" points="355.39 245.2 333.51 232.57 333.51 230.52 355.39 243.16 355.39 245.2"/>
                <polygon class="cls-7" points="355.39 249.3 333.51 236.67 333.51 234.62 355.39 247.26 355.39 249.3"/>
                <polygon class="cls-7" points="355.39 253.4 333.51 240.77 333.51 238.72 355.39 251.36 355.39 253.4"/>
                <polygon class="cls-7" points="355.39 257.5 333.51 244.87 333.51 242.82 355.39 255.46 355.39 257.5"/>
                <polygon class="cls-7" points="347.46 257.02 333.51 248.96 333.51 246.92 347.46 254.97 347.46 257.02"/>
              </g>
              <g>
                <polygon class="cls-7" points="337.11 263.25 333.51 261.17 333.51 257.02 337.11 259.09 337.11 263.25"/>
                <polygon class="cls-7" points="343.2 266.77 339.6 264.69 339.6 260.54 343.2 262.61 343.2 266.77"/>
                <polygon class="cls-7" points="349.3 270.29 345.7 268.21 345.7 264.05 349.3 266.13 349.3 270.29"/>
                <polygon class="cls-7" points="355.39 273.81 351.79 271.73 351.79 267.57 355.39 269.65 355.39 273.81"/>
              </g>
              <g>
                <polygon class="cls-7" points="272.01 173.87 252.04 162.34 252.04 159.88 272.01 171.41 272.01 173.87"/>
                <polygon class="cls-7" points="272.01 179.36 252.04 167.83 252.04 165.38 272.01 176.9 272.01 179.36"/>
                <polygon class="cls-7" points="272.01 184.85 252.04 173.32 252.04 170.87 272.01 182.4 272.01 184.85"/>
                <polygon class="cls-7" points="266.12 186.94 257.93 182.22 257.93 179.76 266.12 184.49 266.12 186.94"/>
              </g>
              <polygon class="cls-4" points="287.87 160.18 287.87 168.07 285.86 166.91 285.86 161.34 281.06 158.57 281.06 156.24 287.87 160.18"/>
              <polygon class="cls-4" points="236.17 130.34 243 134.28 243 136.61 238.18 133.82 238.18 139.36 236.17 138.2 236.17 130.34"/>
              <polygon class="cls-4" points="236.18 190.05 236.18 182.16 238.19 183.32 238.19 188.89 242.99 191.66 242.99 193.98 236.18 190.05"/>
              <polygon class="cls-4" points="287.89 219.89 281.05 215.94 281.05 213.62 285.88 216.41 285.88 210.87 287.89 212.03 287.89 219.89"/>
              <polygon class="cls-2" points="288.96 249.44 265.89 236.12 265.89 216.01 288.96 229.32 288.96 249.44"/>
              <polygon class="cls-1" points="358.18 175.93 358.18 181.21 260.51 237.6 201.81 203.71 201.81 201.97 302.52 143.8 358.18 175.93"/>
            </g>
          </g>
        </g>
        <g>
          <g>
            <polygon class="cls-2" points="227.92 345.3 109.68 277.03 152.06 252.56 270.3 320.83 227.92 345.3"/>
            <g>
              <g>
                <polygon class="cls-4" points="155.54 263.87 149.96 260.65 153.3 258.72 158.88 261.94 155.54 263.87"/>
                <polygon class="cls-4" points="162.73 268.03 157.16 264.81 160.5 262.88 166.08 266.1 162.73 268.03"/>
                <polygon class="cls-4" points="169.93 272.18 164.35 268.96 167.7 267.03 173.27 270.25 169.93 272.18"/>
                <polygon class="cls-4" points="177.13 276.34 171.55 273.12 174.89 271.19 180.47 274.41 177.13 276.34"/>
                <polygon class="cls-4" points="184.32 280.49 178.75 277.27 182.09 275.34 187.67 278.56 184.32 280.49"/>
                <polygon class="cls-4" points="191.52 284.65 185.94 281.43 189.29 279.5 194.86 282.72 191.52 284.65"/>
                <polygon class="cls-4" points="198.72 288.8 193.14 285.58 196.48 283.65 202.06 286.87 198.72 288.8"/>
                <polygon class="cls-4" points="205.91 292.96 200.34 289.74 203.68 287.81 209.26 291.03 205.91 292.96"/>
                <polygon class="cls-4" points="213.11 297.11 207.53 293.89 210.88 291.96 216.45 295.18 213.11 297.11"/>
                <polygon class="cls-4" points="220.31 301.27 214.73 298.05 218.07 296.12 223.65 299.34 220.31 301.27"/>
                <polygon class="cls-4" points="227.5 305.42 221.93 302.2 225.27 300.27 230.85 303.49 227.5 305.42"/>
                <polygon class="cls-4" points="234.7 309.58 229.12 306.36 232.47 304.43 238.04 307.65 234.7 309.58"/>
                <polygon class="cls-4" points="241.9 313.73 236.32 310.51 239.66 308.58 245.24 311.8 241.9 313.73"/>
                <polygon class="cls-4" points="249.09 317.89 243.52 314.67 246.86 312.74 252.44 315.96 249.09 317.89"/>
                <polygon class="cls-4" points="256.29 322.05 250.71 318.82 254.06 316.89 259.64 320.11 256.29 322.05"/>
              </g>
              <g>
                <polygon class="cls-4" points="148.13 268.15 142.56 264.93 148.13 261.71 153.71 264.93 148.13 268.15"/>
                <polygon class="cls-4" points="155.33 272.3 149.75 269.08 155.33 265.86 160.91 269.08 155.33 272.3"/>
                <polygon class="cls-4" points="162.53 276.46 156.95 273.24 162.53 270.02 168.1 273.24 162.53 276.46"/>
                <polygon class="cls-4" points="169.72 280.61 164.15 277.39 169.72 274.17 175.3 277.39 169.72 280.61"/>
                <polygon class="cls-4" points="176.92 284.77 171.34 281.55 176.92 278.33 182.5 281.55 176.92 284.77"/>
                <polygon class="cls-4" points="184.12 288.92 178.54 285.7 184.12 282.48 189.69 285.7 184.12 288.92"/>
                <polygon class="cls-4" points="191.31 293.08 185.74 289.86 191.31 286.64 196.89 289.86 191.31 293.08"/>
                <polygon class="cls-4" points="198.51 297.23 192.93 294.01 198.51 290.79 204.09 294.01 198.51 297.23"/>
                <polygon class="cls-4" points="205.71 301.39 200.13 298.17 205.71 294.95 211.28 298.17 205.71 301.39"/>
                <polygon class="cls-4" points="212.9 305.54 207.33 302.32 212.9 299.1 218.48 302.32 212.9 305.54"/>
                <polygon class="cls-4" points="220.1 309.7 214.52 306.48 220.1 303.26 225.68 306.48 220.1 309.7"/>
                <polygon class="cls-4" points="227.3 313.85 221.72 310.63 227.3 307.41 232.87 310.63 227.3 313.85"/>
                <polygon class="cls-4" points="234.49 318.01 228.92 314.79 234.49 311.57 240.07 314.79 234.49 318.01"/>
                <polygon class="cls-4" points="241.69 322.16 236.11 318.94 241.69 315.72 247.27 318.94 241.69 322.16"/>
                <polygon class="cls-4" points="248.89 326.32 243.31 323.1 248.89 319.88 254.46 323.1 248.89 326.32"/>
              </g>
              <g>
                <polygon class="cls-4" points="140.73 272.42 135.15 269.2 140.73 265.98 146.31 269.2 140.73 272.42"/>
                <polygon class="cls-4" points="147.93 276.58 142.35 273.36 147.93 270.14 153.5 273.36 147.93 276.58"/>
                <polygon class="cls-4" points="155.12 280.73 149.55 277.51 155.12 274.29 160.7 277.51 155.12 280.73"/>
                <polygon class="cls-4" points="162.32 284.89 156.74 281.67 162.32 278.45 167.9 281.67 162.32 284.89"/>
                <polygon class="cls-4" points="169.52 289.04 163.94 285.82 169.52 282.6 175.09 285.82 169.52 289.04"/>
                <polygon class="cls-4" points="176.71 293.2 171.14 289.98 176.71 286.76 182.29 289.98 176.71 293.2"/>
                <polygon class="cls-4" points="183.91 297.35 178.33 294.13 183.91 290.91 189.49 294.13 183.91 297.35"/>
                <polygon class="cls-4" points="191.11 301.51 185.53 298.29 191.11 295.07 196.68 298.29 191.11 301.51"/>
                <polygon class="cls-4" points="198.3 305.66 192.73 302.44 198.3 299.22 203.88 302.44 198.3 305.66"/>
                <polygon class="cls-4" points="205.5 309.82 199.92 306.6 205.5 303.38 211.08 306.6 205.5 309.82"/>
                <polygon class="cls-4" points="212.7 313.97 207.12 310.75 212.7 307.53 218.27 310.75 212.7 313.97"/>
                <polygon class="cls-4" points="219.89 318.13 214.32 314.91 219.89 311.69 225.47 314.91 219.89 318.13"/>
                <polygon class="cls-4" points="227.09 322.28 221.51 319.06 227.09 315.84 232.67 319.06 227.09 322.28"/>
                <polygon class="cls-4" points="234.29 326.44 228.71 323.22 234.29 320 239.86 323.22 234.29 326.44"/>
                <polygon class="cls-4" points="241.48 330.59 228.71 323.22 234.29 320 247.06 327.37 241.48 330.59"/>
              </g>
              <g>
                <polygon class="cls-4" points="133.33 276.7 127.75 273.48 133.33 270.26 138.9 273.48 133.33 276.7"/>
                <polygon class="cls-4" points="140.52 280.85 134.95 277.63 140.52 274.41 146.1 277.63 140.52 280.85"/>
                <polygon class="cls-4" points="147.72 285.01 142.14 281.79 147.72 278.57 153.3 281.79 147.72 285.01"/>
                <polygon class="cls-4" points="154.92 289.16 149.34 285.94 154.92 282.72 160.49 285.94 154.92 289.16"/>
                <polygon class="cls-4" points="162.11 293.32 156.54 290.1 162.11 286.88 167.69 290.1 162.11 293.32"/>
                <polygon class="cls-4" points="169.31 297.47 163.73 294.25 169.31 291.03 174.89 294.25 169.31 297.47"/>
                <polygon class="cls-4" points="176.51 301.63 170.93 298.41 176.51 295.19 182.08 298.41 176.51 301.63"/>
                <polygon class="cls-4" points="183.7 305.78 178.13 302.56 183.7 299.34 189.28 302.56 183.7 305.78"/>
                <polygon class="cls-4" points="190.9 309.94 185.32 306.72 190.9 303.5 196.48 306.72 190.9 309.94"/>
                <polygon class="cls-4" points="198.1 314.09 192.52 310.87 198.1 307.65 203.67 310.87 198.1 314.09"/>
                <polygon class="cls-4" points="205.29 318.25 199.72 315.03 205.29 311.81 210.87 315.03 205.29 318.25"/>
                <polygon class="cls-4" points="212.49 322.4 206.91 319.18 212.49 315.96 218.07 319.18 212.49 322.4"/>
                <polygon class="cls-4" points="219.69 326.56 214.11 323.34 219.69 320.12 225.26 323.34 219.69 326.56"/>
                <polygon class="cls-4" points="226.88 330.71 221.31 327.49 226.88 324.27 232.46 327.49 226.88 330.71"/>
                <polygon class="cls-4" points="234.08 334.87 228.5 331.65 234.08 328.43 239.66 331.65 234.08 334.87"/>
              </g>
              <g>
                <polygon class="cls-4" points="125.92 280.97 120.35 277.75 125.92 274.53 131.5 277.75 125.92 280.97"/>
                <polygon class="cls-4" points="133.12 285.13 127.54 281.91 133.12 278.69 138.7 281.91 133.12 285.13"/>
                <polygon class="cls-4" points="140.32 289.28 134.74 286.06 140.32 282.84 145.89 286.06 140.32 289.28"/>
                <polygon class="cls-4" points="147.51 293.44 141.94 290.22 147.51 287 153.09 290.22 147.51 293.44"/>
                <polygon class="cls-4" points="176.3 310.06 149.13 294.37 154.71 291.15 181.88 306.84 176.3 310.06"/>
                <polygon class="cls-4" points="161.91 301.75 156.33 298.53 161.91 295.31 167.48 298.53 161.91 301.75"/>
                <polygon class="cls-4" points="169.1 305.9 163.53 302.68 169.1 299.46 174.68 302.68 169.1 305.9"/>
                <polygon class="cls-4" points="176.3 310.06 170.72 306.84 176.3 303.62 181.88 306.84 176.3 310.06"/>
                <polygon class="cls-4" points="183.5 314.21 177.92 310.99 183.5 307.77 189.07 310.99 183.5 314.21"/>
                <polygon class="cls-4" points="190.69 318.37 185.12 315.15 190.69 311.93 196.27 315.15 190.69 318.37"/>
                <polygon class="cls-4" points="197.89 322.52 192.31 319.3 197.89 316.08 203.47 319.3 197.89 322.52"/>
                <polygon class="cls-4" points="205.09 326.68 199.51 323.46 205.09 320.24 210.66 323.46 205.09 326.68"/>
                <polygon class="cls-4" points="212.28 330.83 206.71 327.61 212.28 324.39 217.86 327.61 212.28 330.83"/>
                <polygon class="cls-4" points="219.48 334.99 213.9 331.77 219.48 328.55 225.06 331.77 219.48 334.99"/>
                <polygon class="cls-4" points="226.68 339.14 221.1 335.92 226.68 332.7 232.25 335.92 226.68 339.14"/>
              </g>
            </g>
          </g>
          <polygon class="cls-4" points="227.92 349.94 109.68 281.67 109.68 277.03 227.92 345.3 227.92 349.94"/>
          <polygon class="cls-3" points="270.3 325.47 227.92 349.94 227.92 345.3 270.3 320.83 270.3 325.47"/>
        </g>
        <g>
          <g>
            <path class="cls-6" d="M410.82,358.46v2.83c0,.93-.67,1.92-2.02,2.69l-50.13,28.94c-1.31.77-2.99,1.17-4.59,1.17-1.38,0-2.67-.27-3.65-.83l-75.12-43.37c-.96-.56-1.44-1.3-1.44-2.08v-2.83c0,.5.19.96.56,1.38.22.26.51.5.88.7l75.12,43.37c.98.56,2.27.83,3.65.83,1.6,0,3.28-.4,4.59-1.17l50.13-28.94c.66-.37,1.14-.8,1.47-1.23.37-.48.54-.98.54-1.45Z"/>
            <path class="cls-8" d="M410.82,358.46v2.83c0,.93-.67,1.92-2.02,2.69l-50.13,28.94c-1.31.77-2.99,1.17-4.59,1.17v-2.83c1.6,0,3.28-.4,4.59-1.17l50.13-28.94c.66-.37,1.14-.8,1.47-1.23.37-.48.54-.98.54-1.45Z"/>
          </g>
          <g>
            <path class="cls-2" d="M410.82,356.75c0,.48-.18.98-.54,1.45-.34.43-.81.86-1.47,1.23l-50.13,28.94c-2.43,1.41-6.12,1.55-8.24.34l-75.12-43.37c-.37-.21-.65-.45-.88-.7-.37-.42-.56-.88-.56-1.38,0-.93.69-1.92,2.03-2.69l50.11-28.94c2.45-1.41,6.14-1.57,8.25-.34l75.12,43.37c.96.54,1.42,1.3,1.42,2.08Z"/>
            <path class="cls-4" d="M350.12,386.76l-71.42-41.24c-2.49-1.44-2.49-3.78,0-5.22l46.84-27.04c2.49-1.44,6.55-1.44,9.04,0l71.42,41.24c2.49,1.44,2.49,3.78,0,5.22l-46.84,27.04c-2.49,1.44-6.55,1.44-9.04,0ZM333.19,314.06c-1.73-1-4.54-1-6.27,0l-46.84,27.04c-1.73,1-1.73,2.62,0,3.62l71.42,41.24c1.73,1,4.54,1,6.27,0l46.84-27.04c1.73-1,1.73-2.62,0-3.62l-71.42-41.24Z"/>
            <path class="cls-7" d="M308.53,330.48c-.87.5-2.29.5-3.16,0-.87-.5-.87-1.32,0-1.83.87-.5,2.29-.5,3.16,0,.87.5.87,1.32,0,1.83Z"/>
          </g>
          <g>
            <path class="cls-4" d="M410.82,356.75v2.83c0,.93-.67,1.92-2.02,2.69l-50.13,28.94c-1.31.77-2.99,1.17-4.59,1.17-1.38,0-2.67-.27-3.65-.83l-75.12-43.37c-.96-.56-1.44-1.3-1.44-2.08v-2.83c0,.5.19.96.56,1.38.22.26.51.5.88.7l75.12,43.37c.98.56,2.27.83,3.65.83,1.6,0,3.28-.4,4.59-1.17l50.13-28.94c.66-.37,1.14-.8,1.47-1.23.37-.48.54-.98.54-1.45Z"/>
            <path class="cls-3" d="M410.82,356.75v2.83c0,.93-.67,1.92-2.02,2.69l-50.13,28.94c-1.31.77-2.99,1.17-4.59,1.17v-2.83c1.6,0,3.28-.4,4.59-1.17l50.13-28.94c.66-.37,1.14-.8,1.47-1.23.37-.48.54-.98.54-1.45Z"/>
          </g>
          <g>
            <polygon class="cls-4" points="412.85 368.28 421.04 367.91 416.4 374.39 412.85 368.28"/>
            <g class="cls-11">
              <path class="cls-2" d="M416.73,373.13c0,.83-.29,1.41-.77,1.69l-47.89,27.82c.47-.27.76-.85.76-1.68.01-1.67-1.16-3.68-2.6-4.5-.73-.43-1.4-.47-1.87-.19l47.89-27.84c.48-.28,1.15-.24,1.87.19,1.45.83,2.61,2.84,2.61,4.5Z"/>
              <path class="cls-4" d="M366.22,396.46c1.45.83,2.61,2.85,2.6,4.51,0,1.66-1.17,2.34-2.62,1.5-1.45-.83-2.62-2.86-2.61-4.52,0-1.66,1.18-2.32,2.63-1.49Z"/>
            </g>
          </g>
        </g>
      </g>
    </g>
  </g>
</svg>